<?xml version="1.0" encoding="utf-8"?>
<!-- Generator: Adobe Illustrator 17.0.0, SVG Export Plug-In . SVG Version: 6.00 Build 0)  -->
<!DOCTYPE svg PUBLIC "-//W3C//DTD SVG 1.1//EN" "http://www.w3.org/Graphics/SVG/1.1/DTD/svg11.dtd">
<svg version="1.1" id="Layer_1" xmlns="http://www.w3.org/2000/svg" xmlns:xlink="http://www.w3.org/1999/xlink" x="0px" y="0px"
	 width="447.494px" height="460.907px" viewBox="0 0 447.494 460.907" enable-background="new 0 0 447.494 460.907"
	 xml:space="preserve">
<g>
	<g>
		<defs>
			<rect id="SVGID_1_" y="0" width="447.494" height="460.907"/>
		</defs>
		<clipPath id="SVGID_2_">
			<use xlink:href="#SVGID_1_"  overflow="visible"/>
		</clipPath>
		<path clip-path="url(#SVGID_2_)" fill="#DCEAFF" d="M346.853,57.953c-22.687-10.681-48.141-20.185-72.338-13.607
			c-9.825,2.67-18.817,7.877-28.646,10.531c-11.601,3.132-23.89,2.578-35.787,0.894c-27.945-3.957-55.077-14.005-83.297-14.455
			c-28.22-0.451-59.677,12.159-69.098,38.764c-4.281,12.088-3.434,25.28-3.649,38.102c-0.542,32.28-8.267,64.419-22.453,93.42
			c-12.618,25.796-30.812,53.944-20.765,80.845c11.493,30.777,53.324,39.678,68.814,68.649c9.027,16.882,7.305,37.227,5.609,56.296
			c-0.323,3.628-0.623,7.379,0.536,10.832c2.035,6.064,8.057,9.829,13.971,12.264c23.207,9.558,49.759,6.042,73.803-1.152
			c12.153-3.637,24.189-8.248,34.497-15.64c10.262-7.358,18.6-17.32,29.537-23.632c19.991-11.536,44.699-8.985,67.746-7.745
			c20.368,1.096,40.805,0.887,61.145-0.624c13.497-1.003,27.225-2.653,39.501-8.351c12.275-5.699,23.04-16.097,26.056-29.29
			c3.767-16.483-5.249-33.584-17.654-45.073c-6.608-6.12-14.191-11.137-20.612-17.453c-21.631-21.277-27.097-54.054-26.708-84.393
			c0.273-21.274,3.354-43.767,16.643-60.382c6.4-8.001,14.87-14.224,20.838-22.551C437.01,78.896,376.493,71.907,346.853,57.953"/>
		<path clip-path="url(#SVGID_2_)" fill="#E5EEFE" d="M328.613,420.219c-13.023,0-26.258-1.1-38.807-4.808
			c-6.656-1.967-13.163-4.675-19.455-7.293c-4.478-1.864-9.108-3.79-13.748-5.431c-16.565-5.859-33.954-8.403-50.345-10.506
			c-21.377-2.742-44.137-5.123-66.729-1.585c-8.238,1.29-16.545,3.4-24.579,5.44c-15.222,3.866-30.959,7.859-46.805,6.409
			c-8.501-0.781-14.667-3.178-18.85-7.326c-6.311-6.259-7.448-15.725-8.073-24.884c-1.095-16.081-2.028-34.77,0.787-53.074
			c1.495-9.718,4.059-19.379,6.539-28.722c2.575-9.704,5.239-19.739,6.696-29.819c1.97-13.64,2.88-39.06-13.171-56.058
			c-3.768-3.992-8.32-7.299-12.721-10.498c-4.614-3.353-9.385-6.82-13.306-11.101c-5.814-6.348-8.51-12.912-8.013-19.509
			c1.056-14.01,16.264-26.279,28.485-36.137c3.399-2.742,6.611-5.333,9.316-7.779l0.335,0.371l-0.335-0.371
			c30.708-27.764,62.463-56.473,101.551-72.784c33.906-14.148,83.316-19.775,120.31,6.859c6.734,4.849,12.853,10.645,18.771,16.251
			c4.261,4.037,8.668,8.211,13.264,11.993c15.127,12.445,33.213,21.351,52.303,25.753c4.612,1.064,9.402,1.898,14.034,2.704
			c11.592,2.018,23.579,4.104,33.938,9.982c15.926,9.039,27.021,27.161,28.954,47.295c1.697,17.668-3.374,37.073-14.276,54.639
			c-3.364,5.42-7.252,10.675-11.012,15.756c-7.554,10.211-15.365,20.768-19.108,32.989c-3.9,12.732-3.176,26.227-2.476,39.277
			l3.692,68.763c0.729,13.572,0.116,32.389-13.564,39.088c-4.479,2.194-9.686,2.539-14.28,2.843
			C348.567,419.564,338.653,420.219,328.613,420.219 M163.894,387.817c14.47,0,28.766,1.611,42.491,3.372
			c16.445,2.11,33.893,4.663,50.552,10.555c4.665,1.65,9.308,3.582,13.798,5.451c6.268,2.608,12.749,5.306,19.354,7.257
			c22.054,6.516,45.3,4.98,67.78,3.496c4.502-0.298,9.604-0.636,13.907-2.743c13.147-6.439,13.719-24.849,13.005-38.137
			l-3.692-68.764c-0.705-13.136-1.434-26.72,2.517-39.622c3.794-12.385,11.657-23.012,19.262-33.29
			c3.747-5.066,7.623-10.304,10.965-15.689c10.789-17.382,15.806-36.565,14.13-54.016c-1.902-19.815-12.804-37.641-28.452-46.52
			c-10.208-5.794-22.107-7.865-33.616-9.868c-4.645-0.808-9.448-1.644-14.087-2.714c-19.239-4.437-37.468-13.413-52.713-25.956
			c-4.623-3.804-9.043-7.99-13.317-12.039c-5.894-5.583-11.988-11.356-18.667-16.166c-36.658-26.393-85.684-20.791-119.341-6.747
			C108.84,61.921,77.151,90.572,46.505,118.28c-2.726,2.464-5.948,5.064-9.36,7.816c-12.07,9.737-27.091,21.855-28.115,35.433
			c-0.482,6.4,2.054,12.536,7.753,18.759c3.853,4.206,8.583,7.643,13.156,10.967c4.439,3.226,9.029,6.561,12.862,10.62
			c16.339,17.304,15.429,43.07,13.432,56.887c-1.464,10.138-4.135,20.201-6.718,29.934c-2.474,9.317-5.031,18.952-6.517,28.617
			c-2.8,18.203-1.87,36.826-0.778,52.854c0.611,8.968,1.716,18.228,7.779,24.241c4.012,3.978,9.978,6.282,18.238,7.041
			c15.671,1.437,31.326-2.537,46.467-6.382c8.056-2.046,16.386-4.161,24.671-5.459C147.556,388.327,155.752,387.817,163.894,387.817
			"/>
		<path clip-path="url(#SVGID_2_)" fill="#C71781" d="M349.992,170.311c-0.987-0.163-1.975-0.318-2.962-0.468l0.15-0.988
			c0.992,0.15,1.983,0.306,2.974,0.47L349.992,170.311z"/>
		<path clip-path="url(#SVGID_2_)" fill="#C71781" d="M339.827,319.508l-0.781-0.625c1.193-1.489,2.492-2.995,3.861-4.477
			l0.734,0.68C342.288,316.549,341.005,318.037,339.827,319.508 M347.74,310.914l-0.693-0.72c1.359-1.307,2.826-2.646,4.36-3.981
			l0.656,0.754C350.542,308.291,349.088,309.619,347.74,310.914 M356.56,303.208l-0.627-0.779c1.464-1.178,2.983-2.364,4.645-3.628
			l0.605,0.795C359.529,300.855,358.016,302.036,356.56,303.208 M365.892,296.091l-0.589-0.807c1.581-1.157,3.171-2.305,4.765-3.45
			l0.584,0.813C369.06,293.789,367.472,294.936,365.892,296.091 M375.428,289.221l-0.584-0.813c1.593-1.144,3.181-2.291,4.756-3.446
			l0.592,0.807C378.613,286.926,377.023,288.074,375.428,289.221 M384.913,282.242l-0.613-0.789l0.305-0.235
			c1.452-1.109,2.894-2.256,4.288-3.408l0.637,0.771c-1.403,1.159-2.855,2.314-4.316,3.431L384.913,282.242z M394.002,274.722
			l-0.67-0.742c1.475-1.332,2.905-2.688,4.252-4.029l0.705,0.709C396.932,272.012,395.489,273.378,394.002,274.722 M402.36,266.379
			l-0.744-0.668c1.332-1.485,2.6-2.989,3.767-4.469l0.785,0.62C404.988,263.358,403.707,264.877,402.36,266.379 M409.66,257.093
			l-0.828-0.559c1.111-1.648,2.142-3.317,3.059-4.963l0.874,0.489C411.833,253.729,410.788,255.422,409.66,257.093 M415.398,246.758
			l-0.916-0.4c0.788-1.809,1.47-3.643,2.027-5.45l0.955,0.295C416.897,243.045,416.202,244.914,415.398,246.758 M418.859,235.437
			l-0.984-0.174c0.338-1.914,0.549-3.856,0.626-5.773l1,0.041C419.421,231.492,419.205,233.479,418.859,235.437 M418.339,223.69
			c-0.188-1.905-0.515-3.83-0.971-5.722l0.973-0.234c0.467,1.936,0.8,3.907,0.994,5.857L418.339,223.69z M415.641,212.424
			c-0.679-1.778-1.488-3.56-2.403-5.296l0.885-0.466c0.934,1.771,1.758,3.589,2.452,5.404L415.641,212.424z M410.243,202.134
			c-1.072-1.586-2.252-3.151-3.506-4.652l0.768-0.641c1.275,1.526,2.475,3.119,3.566,4.733L410.243,202.134z M402.788,193.196
			c-1.371-1.354-2.83-2.665-4.336-3.898l0.633-0.773c1.53,1.252,3.013,2.584,4.406,3.959L402.788,193.196z M393.775,185.816
			l-0.336-0.225c-1.485-0.99-3.044-1.947-4.629-2.844l0.493-0.87c1.606,0.909,3.185,1.879,4.692,2.882l0.339,0.228L393.775,185.816z
			 M383.626,180.059c-1.722-0.817-3.526-1.601-5.36-2.33l0.369-0.93c1.855,0.738,3.678,1.531,5.419,2.356L383.626,180.059z
			 M372.769,175.727c-1.801-0.6-3.685-1.174-5.598-1.708l0.267-0.963c1.93,0.538,3.83,1.117,5.648,1.722L372.769,175.727z
			 M361.495,172.571c-1.847-0.43-3.774-0.841-5.731-1.224l0.191-0.981c1.969,0.384,3.909,0.799,5.767,1.231L361.495,172.571z"/>
		<path clip-path="url(#SVGID_2_)" fill="#C71781" d="M334.713,326.736l-0.852-0.525c0.531-0.861,1.079-1.705,1.642-2.537
			l0.828,0.561C335.775,325.054,335.235,325.887,334.713,326.736"/>
		<path clip-path="url(#SVGID_2_)" fill="#C71781" d="M62.4,417.057l-0.027-1c1.972-0.052,3.967-0.209,5.929-0.462l0.129,0.992
			C66.435,416.845,64.406,417.004,62.4,417.057 M56.353,416.911c-2.011-0.153-4.029-0.41-6-0.766l0.177-0.984
			c1.938,0.35,3.922,0.603,5.898,0.752L56.353,416.911z M74.381,415.493l-0.233-0.973c1.928-0.461,3.845-1.029,5.698-1.688
			l0.336,0.941C78.296,414.445,76.343,415.024,74.381,415.493 M44.464,414.762c-1.943-0.568-3.864-1.242-5.709-2.005l0.382-0.924
			c1.812,0.749,3.699,1.412,5.607,1.968L44.464,414.762z M85.761,411.424l-0.44-0.899c0.85-0.415,1.698-0.859,2.522-1.322
			c0.88-0.492,1.776-1.024,2.663-1.583l0.533,0.846c-0.902,0.568-1.813,1.109-2.707,1.61
			C87.493,410.547,86.627,411.001,85.761,411.424 M33.301,410.133c-1.776-0.985-3.497-2.075-5.116-3.242l0.585-0.81
			c1.587,1.142,3.274,2.212,5.015,3.177L33.301,410.133z M96.002,405.027l-0.602-0.799c1.514-1.142,3.031-2.37,4.639-3.752
			l0.652,0.758C99.067,402.631,97.534,403.871,96.002,405.027 M23.496,403.056c-1.463-1.36-2.866-2.838-4.17-4.394l0.766-0.643
			c1.277,1.525,2.652,2.972,4.085,4.304L23.496,403.056z M105.164,397.204l-0.683-0.731c1.268-1.188,2.639-2.507,4.316-4.151
			l0.7,0.715C107.815,394.685,106.438,396.01,105.164,397.204 M15.723,393.794c-1.09-1.673-2.103-3.441-3.008-5.254l0.895-0.447
			c0.888,1.78,1.881,3.513,2.951,5.154L15.723,393.794z M113.771,388.824l-0.702-0.713c1.427-1.406,2.86-2.807,4.31-4.187
			l0.689,0.724C116.623,386.024,115.195,387.422,113.771,388.824 M10.32,382.982c-0.692-1.885-1.287-3.833-1.769-5.788l0.971-0.24
			c0.473,1.92,1.057,3.833,1.736,5.685L10.32,382.982z M122.469,380.598l-0.662-0.75c0.916-0.81,1.844-1.607,2.784-2.384
			c0.605-0.5,1.221-0.993,1.848-1.478l0.611,0.791c-0.618,0.479-1.226,0.964-1.822,1.457
			C124.297,379.005,123.378,379.794,122.469,380.598 M131.918,373.346l-0.54-0.842c1.723-1.105,3.485-2.122,5.236-3.023l0.457,0.889
			C135.348,371.257,133.614,372.258,131.918,373.346 M7.427,371.247c-0.264-2.002-0.418-4.033-0.455-6.036l1-0.02
			c0.037,1.966,0.187,3.959,0.447,5.925L7.427,371.247z M142.493,367.928l-0.36-0.934c1.934-0.746,3.878-1.363,5.777-1.832
			l0.24,0.971C146.291,366.592,144.388,367.195,142.493,367.928 M169.55,367.872c-1.25-0.623-2.562-1.152-3.897-1.573l0.3-0.953
			c1.386,0.436,2.746,0.985,4.044,1.631L169.55,367.872z M153.985,365.141l-0.089-0.996c2.071-0.185,4.123-0.185,6.083,0
			l-0.094,0.996C157.985,364.963,155.997,364.963,153.985,365.141 M8.203,359.258l-0.995-0.098c0.198-2.021,0.519-4.033,0.954-5.981
			l0.976,0.218C8.712,355.305,8.398,357.277,8.203,359.258 M10.796,347.701l-0.941-0.34c0.678-1.872,1.482-3.707,2.389-5.452
			l0.05-0.096l0.888,0.457l-0.05,0.098C12.245,344.077,11.459,345.871,10.796,347.701 M16.226,337.173l-0.83-0.557
			c1.073-1.6,2.246-3.189,3.586-4.86l0.78,0.625C18.44,334.03,17.283,335.598,16.226,337.173 M23.641,327.843l-0.743-0.67
			c1.188-1.32,2.493-2.717,4.106-4.398l0.721,0.694C26.119,325.141,24.821,326.531,23.641,327.843 M31.899,319.161l-0.717-0.697
			c1.393-1.433,2.781-2.871,4.142-4.328l0.731,0.683C34.688,316.28,33.297,317.723,31.899,319.161 M40.08,310.341l-0.76-0.651
			c1.305-1.525,2.543-3.101,3.682-4.683l0.811,0.584C42.659,307.195,41.403,308.794,40.08,310.341 M47.114,300.524l-0.863-0.504
			c1.03-1.762,1.944-3.54,2.716-5.284l0.914,0.404C49.094,296.919,48.163,298.73,47.114,300.524 M51.963,289.445l-0.961-0.275
			c0.562-1.957,0.95-3.906,1.154-5.792l0.994,0.107C52.94,285.429,52.541,287.433,51.963,289.445 M52.196,277.494
			c-0.196-1.966-0.616-3.896-1.248-5.737l0.947-0.325c0.656,1.915,1.092,3.92,1.296,5.962L52.196,277.494z"/>
		<path clip-path="url(#SVGID_2_)" fill="#C71781" d="M256.645,206.458l-0.996-0.097c0.084-0.864,0.184-1.726,0.302-2.586
			l0.99,0.134C256.826,204.757,256.727,205.606,256.645,206.458 M258.006,198.052l-0.974-0.222c0.444-1.951,0.981-3.912,1.595-5.826
			l0.952,0.305C258.974,194.197,258.445,196.129,258.006,198.052 M261.64,186.721l-0.922-0.385c0.771-1.847,1.632-3.688,2.56-5.471
			l0.886,0.461C263.25,183.085,262.401,184.9,261.64,186.721 M267.13,176.161l-0.845-0.534c1.071-1.697,2.227-3.368,3.436-4.968
			l0.797,0.604C269.327,172.839,268.187,174.487,267.13,176.161 M274.309,166.669l-0.744-0.668c1.343-1.495,2.765-2.946,4.229-4.315
			l0.684,0.731C277.035,163.765,275.632,165.196,274.309,166.669 M283.001,158.547l-0.615-0.789
			c0.604-0.471,1.214-0.931,1.833-1.381c0.97-0.705,1.977-1.401,3.08-2.129l0.551,0.835c-1.091,0.719-2.086,1.407-3.043,2.103
			C284.198,157.629,283.595,158.083,283.001,158.547 M292.922,151.924l-0.51-0.859c1.72-1.022,3.459-2.019,5.2-3.015l0.496,0.868
			C296.373,149.911,294.638,150.906,292.922,151.924 M303.31,145.908l-0.51-0.86c1.971-1.165,3.586-2.165,5.084-3.145l0.547,0.837
			C306.92,143.728,305.292,144.735,303.31,145.908 M78.007,144.796l-0.995-0.1c0.189-1.884,0.319-3.887,0.386-5.953l0.999,0.033
			C78.329,140.865,78.198,142.889,78.007,144.796 M313.357,139.248l-0.614-0.79c1.667-1.292,3.132-2.565,4.482-3.892l0.701,0.713
			C316.549,136.634,315.054,137.932,313.357,139.248 M77.438,132.769c-0.031-1.842-0.098-3.798-0.205-5.98l0.999-0.048
			c0.108,2.192,0.175,4.159,0.206,6.011L77.438,132.769z M321.927,130.717l-0.801-0.599c0.564-0.755,1.1-1.538,1.594-2.326
			c0.541-0.864,1.042-1.771,1.489-2.695l0.901,0.435c-0.463,0.958-0.982,1.896-1.542,2.791
			C323.059,129.135,322.507,129.94,321.927,130.717 M76.883,120.807l-0.403-5.986l0.998-0.066l0.403,5.987L76.883,120.807z
			 M327.2,119.814l-0.969-0.25c0.484-1.876,0.8-3.836,0.937-5.825l0.998,0.069C328.024,115.858,327.699,117.879,327.2,119.814
			 M76.12,108.823c-0.112-2.206-0.185-4.173-0.22-6.013l1-0.019c0.035,1.829,0.107,3.786,0.219,5.981L76.12,108.823z
			 M327.072,107.831c-0.197-1.947-0.558-3.903-1.075-5.814l0.965-0.26c0.531,1.962,0.903,3.972,1.104,5.974L327.072,107.831z
			 M76.924,96.816l-1-0.031c0.065-2.131,0.191-4.101,0.383-6.022l0.996,0.1C77.112,92.761,76.988,94.708,76.924,96.816
			 M323.993,96.455c-0.823-1.807-1.796-3.54-2.893-5.15l0.826-0.563c1.129,1.657,2.131,3.439,2.978,5.298L323.993,96.455z
			 M317.353,86.749c-1.402-1.412-2.93-2.675-4.539-3.753l0.556-0.831c1.665,1.116,3.244,2.421,4.692,3.88L317.353,86.749z
			 M78.154,84.972l-0.982-0.19c0.391-2.029,0.883-4.005,1.461-5.872l0.955,0.296C79.021,81.038,78.538,82.978,78.154,84.972
			 M307.614,80.218c-1.746-0.737-3.633-1.369-5.614-1.877l0.248-0.969c2.029,0.521,3.965,1.168,5.754,1.925L307.614,80.218z
			 M223.692,78.972c-1.901,0-3.66-0.05-5.379-0.152l0.06-0.998c1.698,0.101,3.438,0.15,5.319,0.15l0.645-0.002l0.006,1
			L223.692,78.972z M230.362,78.792l-0.049-0.999c1.74-0.087,3.639-0.206,5.975-0.377l0.073,0.997
			C234.017,78.585,232.111,78.705,230.362,78.792 M212.303,78.206c-2.053-0.306-4.048-0.714-5.929-1.213l0.257-0.967
			c1.845,0.49,3.803,0.891,5.82,1.191L212.303,78.206z M242.346,77.956l-0.076-0.997l0.774-0.059
			c1.739-0.131,3.478-0.254,5.217-0.367l0.065,0.998c-1.736,0.113-3.471,0.235-5.207,0.366L242.346,77.956z M296.169,77.208
			c-1.852-0.257-3.794-0.444-5.932-0.571l0.058-0.998c2.166,0.129,4.133,0.318,6.011,0.579L296.169,77.208z M254.308,77.175
			l-0.053-0.999c1.998-0.108,3.998-0.204,5.998-0.288l0.043,0.999C258.3,76.971,256.304,77.067,254.308,77.175 M266.286,76.669
			l-0.031-1c2.001-0.062,4.002-0.112,6.004-0.15l0.02,1C270.281,76.557,268.284,76.607,266.286,76.669 M284.263,76.439
			c-0.876-0.01-1.751-0.014-2.623-0.014l-0.994,0.002c-0.791,0.001-1.582,0.006-2.373,0.012l-0.008-1
			c0.793-0.006,1.586-0.011,2.378-0.012l0.997-0.002c0.876,0,1.755,0.004,2.635,0.014L284.263,76.439z M200.628,75.069
			c-1.783-0.729-3.569-1.581-5.46-2.606l0.475-0.879c1.86,1.007,3.614,1.844,5.364,2.559L200.628,75.069z M81.687,73.659
			l-0.911-0.413c0.268-0.592,0.55-1.182,0.845-1.769c0.611-1.21,1.291-2.412,2.023-3.572l0.846,0.533
			c-0.715,1.134-1.379,2.308-1.975,3.49C82.225,72.502,81.95,73.079,81.687,73.659 M189.975,69.388
			c-1.455-0.927-3-1.956-5.008-3.335l0.566-0.824c1.998,1.372,3.534,2.395,4.98,3.316L189.975,69.388z M87.988,63.654l-0.765-0.643
			c1.281-1.527,2.689-3,4.186-4.38l0.677,0.735C90.621,60.717,89.243,62.159,87.988,63.654 M180.03,62.644
			c-1.782-1.222-3.166-2.145-4.489-2.993l-0.495-0.316l0.536-0.844l0.498,0.318c1.333,0.854,2.725,1.783,4.516,3.011L180.03,62.644z
			 M169.916,56.28c-1.749-0.975-3.531-1.902-5.297-2.756l0.436-0.9c1.783,0.862,3.582,1.798,5.348,2.783L169.916,56.28z
			 M96.684,55.612l-0.586-0.81c1.616-1.168,3.332-2.266,5.098-3.263l0.491,0.871C99.953,53.388,98.27,54.466,96.684,55.612
			 M159.168,51.095c-1.853-0.757-3.735-1.454-5.594-2.072l0.316-0.949c1.88,0.625,3.783,1.33,5.656,2.095L159.168,51.095z
			 M107.013,49.771l-0.395-0.918c1.838-0.793,3.747-1.5,5.671-2.102l0.299,0.954C110.696,48.297,108.821,48.992,107.013,49.771
			 M147.853,47.345c-1.94-0.493-3.9-0.913-5.828-1.247l0.171-0.985c1.953,0.338,3.939,0.763,5.903,1.263L147.853,47.345z
			 M118.348,46.222l-0.2-0.979c1.978-0.402,3.992-0.704,5.984-0.897l0.096,0.996C122.27,45.531,120.292,45.827,118.348,46.222
			 M136.119,45.324c-1.975-0.175-3.962-0.264-5.909-0.264l-0.039-1h0.039c1.976,0,3.993,0.09,5.997,0.268L136.119,45.324z"/>
	</g>
	<g opacity="0.1">
		<g>
			<defs>
				<rect id="SVGID_3_" x="61.785" y="116.3" width="303.384" height="317.743"/>
			</defs>
			<clipPath id="SVGID_4_">
				<use xlink:href="#SVGID_3_"  overflow="visible"/>
			</clipPath>
			<g opacity="0.3" clip-path="url(#SVGID_4_)">
				<g>
					<defs>
						<rect id="SVGID_5_" x="61.785" y="116.3" width="245.93" height="187.341"/>
					</defs>
					<clipPath id="SVGID_6_">
						<use xlink:href="#SVGID_5_"  overflow="visible"/>
					</clipPath>
					<path clip-path="url(#SVGID_6_)" fill="#444444" d="M302.25,224.318l-180.714,78.638c-4.731,2.058-10.603-0.664-13.51-6.263
						l-44.591-76.912c-3.273-6.303-1.511-13.7,3.815-16.018l199.418-86.776c5.326-2.318,11.939,1.435,14.321,8.125l25.887,85.052
						C308.992,216.107,306.981,222.259,302.25,224.318"/>
				</g>
			</g>
			<g opacity="0.3" clip-path="url(#SVGID_4_)">
				<g>
					<defs>
						<rect id="SVGID_7_" x="116.563" y="226.392" width="248.606" height="207.651"/>
					</defs>
					<clipPath id="SVGID_8_">
						<use xlink:href="#SVGID_7_"  overflow="visible"/>
					</clipPath>
					<path clip-path="url(#SVGID_8_)" fill="#444444" d="M358.163,355.194l-178.969,77.878c-5.901,2.568-12.765-0.134-15.333-6.034
						l-46.327-106.464c-2.568-5.901,0.134-12.766,6.034-15.333l178.969-77.879c5.9-2.567,12.766,0.135,15.333,6.035l46.328,106.465
						C366.766,345.761,364.063,352.627,358.163,355.194"/>
				</g>
			</g>
		</g>
	</g>
	<g opacity="0.1">
		<g>
			<defs>
				<rect id="SVGID_9_" x="58.229" y="111.093" width="307.644" height="324.423"/>
			</defs>
			<clipPath id="SVGID_10_">
				<use xlink:href="#SVGID_9_"  overflow="visible"/>
			</clipPath>
			<path clip-path="url(#SVGID_10_)" fill="#444444" d="M364.903,341.334l-46.328-106.465c-0.156-0.359-0.329-0.705-0.517-1.04
				l-0.187-0.432c-2.568-5.9-9.433-8.602-15.333-6.035l-15.098,6.57c-0.085-0.283-0.182-0.566-0.303-0.843l-0.079-0.183
				c-0.25-0.574-0.57-1.094-0.936-1.569l17.056-7.423c4.78-2.079,6.831-8.25,4.72-14.195l-25.792-85.093
				c-0.081-0.229-0.18-0.446-0.27-0.668l-1.239-4.091c-2.375-6.694-9.05-10.419-14.453-8.068L63.812,199.844
				c-5.404,2.351-7.227,9.775-3.948,16.075l2.15,3.694c0.101,0.219,0.192,0.438,0.304,0.654l44.687,76.87
				c2.911,5.597,8.825,8.302,13.604,6.222l16.956-7.378c0.099,0.417,0.229,0.831,0.405,1.237l0.079,0.181
				c0.193,0.443,0.427,0.856,0.691,1.24l-15.172,6.602c-5.899,2.567-8.602,9.432-6.034,15.332l46.328,106.465
				c0.156,0.359,0.329,0.705,0.516,1.04l0.188,0.432c2.568,5.901,9.433,8.602,15.333,6.035l178.97-77.878
				C364.769,354.099,367.47,347.234,364.903,341.334 M170.982,283.069l-0.079-0.182c-0.176-0.406-0.391-0.783-0.629-1.139
				l103.372-44.983l-20.363,8.861c0.098,0.592,0.261,1.181,0.51,1.755l0.08,0.183c0.121,0.277,0.261,0.541,0.411,0.796
				l-82.866,36.06C171.317,283.965,171.174,283.511,170.982,283.069"/>
		</g>
	</g>
	<g opacity="0.1">
		<g>
			<defs>
				<rect id="SVGID_11_" x="51.684" y="320.24" width="105.674" height="65.078"/>
			</defs>
			<clipPath id="SVGID_12_">
				<use xlink:href="#SVGID_11_"  overflow="visible"/>
			</clipPath>
			<path clip-path="url(#SVGID_12_)" fill="#444444" d="M143.37,347.61c0.088-0.846,0.134-1.703,0.134-2.57
				c0-13.698-11.104-24.8-24.8-24.8c-5.852,0-11.227,2.031-15.468,5.422c-2.078-1.469-4.611-2.336-7.349-2.336
				c-5.819,0-10.724,3.903-12.249,9.233c-0.286-0.013-0.573-0.022-0.863-0.022c-8.599,0-15.671,6.539-16.517,14.914
				c-8.369,2.078-14.574,9.638-14.574,18.648c0,10.615,8.604,19.219,19.218,19.219h67.239c10.615,0,19.217-8.604,19.217-19.219
				C157.358,357.3,151.443,349.888,143.37,347.61"/>
		</g>
	</g>
	<g opacity="0.1">
		<g>
			<defs>
				<rect id="SVGID_13_" x="169.211" y="48.713" width="82.338" height="91.508"/>
			</defs>
			<clipPath id="SVGID_14_">
				<use xlink:href="#SVGID_13_"  overflow="visible"/>
			</clipPath>
			<path clip-path="url(#SVGID_14_)" fill="#444444" d="M251.529,76.655c-0.313-8.375-4.232-16.55-11.422-22.021
				c-7.183-5.467-16.107-7.066-24.264-5.136c-6.302,1.496-12.148,5.099-16.373,10.65c-8.419,11.063-7.662,26.224,1.011,36.376
				l-7.259,9.539l-21.16,7.798c-2.257,0.831-3.413,3.336-2.581,5.593s3.336,3.413,5.593,2.581l13.058-4.812l-2.797,3.675
				c-1.324,1.739-0.987,4.223,0.753,5.547c1.74,1.324,4.224,0.987,5.547-0.753l2.197-2.885l-1.06,12.696
				c-0.201,2.397,1.581,4.503,3.978,4.703c2.398,0.2,4.503-1.581,4.703-3.978l1.916-22.945l-0.132-0.011l7.061-9.279
				c12.1,5.655,26.912,2.343,35.33-8.718C249.852,89.723,251.767,83.129,251.529,76.655"/>
		</g>
	</g>
	<g opacity="0.1">
		<g>
			<defs>
				<rect id="SVGID_15_" x="28.527" y="84.319" width="124.206" height="122.963"/>
			</defs>
			<clipPath id="SVGID_16_">
				<use xlink:href="#SVGID_15_"  overflow="visible"/>
			</clipPath>
			<path clip-path="url(#SVGID_16_)" fill="#444444" d="M99.637,84.319l-71.109,63.56c8.716,9.753,43.169,48.297,53.095,59.403
				c0,0,58.844-52.596,71.11-63.56C152.733,143.722,109.56,95.421,99.637,84.319"/>
		</g>
	</g>
	<path opacity="0.5" fill="#C71781" d="M143.37,344.279c0.088-0.846,0.134-1.703,0.134-2.57c0-13.698-11.104-24.8-24.8-24.8
		c-5.852,0-11.227,2.031-15.468,5.422c-2.078-1.469-4.611-2.336-7.349-2.336c-5.819,0-10.724,3.903-12.249,9.233
		c-0.286-0.014-0.573-0.023-0.863-0.023c-8.599,0-15.671,6.54-16.517,14.915c-8.369,2.078-14.574,9.638-14.574,18.648
		c0,10.615,8.604,19.219,19.218,19.219h67.239c10.615,0,19.217-8.604,19.217-19.219C157.358,353.969,151.443,346.557,143.37,344.279
		"/>
	<path fill="#F0F0FC" d="M92.951,84.297c9.923,11.102,53.096,59.403,53.096,59.403c-12.266,10.964-71.11,63.56-71.11,63.56
		c-9.926-11.106-44.379-49.65-53.095-59.403L92.951,84.297z"/>
	<path fill="#DAF3FF" d="M93.245,87.058c9.409,10.526,50.337,56.315,50.337,56.315c-11.801,10.549-68.435,61.169-68.435,61.169
		c-9.41-10.528-42.068-47.065-50.336-56.315L93.245,87.058z"/>
	<path fill="#46B09E" d="M75.147,204.543c-13.357-14.944-26.423-29.561-26.423-29.561c0.524-0.484,1.052-0.978,1.584-1.453
		c22.652-20.247,52.857-23.588,68.298-7.832L75.147,204.543z"/>
	<path fill="#FFD23C" d="M101.649,105.101c4.152,4.646,3.758,11.782-0.894,15.94c-4.642,4.15-11.781,3.746-15.933-0.899
		s-3.756-11.785,0.887-15.935C90.361,100.049,97.497,100.456,101.649,105.101"/>
	<path fill="#31C9AC" d="M85.05,195.691c0,0-2.869-55.825,34.672-79.011l23.86,26.694L85.05,195.691z"/>
	<path fill="#B7B7CE" d="M367.069,348.098l-178.97,77.878c-5.9,2.568-12.765-0.134-15.332-6.034l-46.328-106.465
		c-2.568-5.9,0.134-12.765,6.034-15.332l178.97-77.879c5.9-2.567,12.765,0.135,15.332,6.035l46.328,106.465
		C375.671,338.665,372.969,345.531,367.069,348.098"/>
	<g opacity="0.3">
		<g>
			<defs>
				<rect id="SVGID_17_" x="69.985" y="107.731" width="245.93" height="187.342"/>
			</defs>
			<clipPath id="SVGID_18_">
				<use xlink:href="#SVGID_17_"  overflow="visible"/>
			</clipPath>
			<path clip-path="url(#SVGID_18_)" d="M310.45,215.75l-180.714,78.638c-4.731,2.058-10.604-0.663-13.511-6.263l-44.59-76.912
				c-3.273-6.303-1.511-13.7,3.815-16.017l199.418-86.777c5.326-2.318,11.939,1.435,14.32,8.125l25.888,85.052
				C317.191,207.539,315.18,213.691,310.45,215.75"/>
		</g>
	</g>
	<g opacity="0.3">
		<g>
			<defs>
				<rect id="SVGID_19_" x="124.763" y="217.824" width="248.606" height="207.651"/>
			</defs>
			<clipPath id="SVGID_20_">
				<use xlink:href="#SVGID_19_"  overflow="visible"/>
			</clipPath>
			<path clip-path="url(#SVGID_20_)" d="M366.363,346.626l-178.969,77.879c-5.901,2.567-12.765-0.135-15.333-6.035l-46.328-106.464
				c-2.567-5.901,0.134-12.766,6.035-15.333l178.969-77.879c5.9-2.567,12.765,0.135,15.333,6.035l46.327,106.465
				C374.966,337.194,372.263,344.059,366.363,346.626"/>
		</g>
	</g>
	<path fill="#B7B7CE" d="M309.789,210.621l-183.355,79.787c-4.8,2.088-10.73-0.608-13.643-6.204L68.063,207.35
		c-3.278-6.3-1.456-13.723,3.948-16.075l202.333-88.044c5.403-2.352,12.078,1.374,14.453,8.067l25.751,85.111
		C316.657,202.355,314.589,208.533,309.789,210.621"/>
	<path fill="#FFFFFF" d="M311.378,215.346l-182.57,79.445c-4.779,2.08-10.692-0.624-13.603-6.222l-44.687-76.87
		c-3.277-6.301-1.473-13.717,3.908-16.058l201.466-87.668c5.381-2.341,12.037,1.393,14.414,8.085l25.791,85.093
		C318.209,207.096,316.157,213.266,311.378,215.346"/>
	<path fill="#C71781" d="M124.97,287.043c-0.305,0.133-1.759-0.293-2.75-2.197l-0.096-0.186l-44.705-76.813
		c-0.677-1.39-0.651-2.689-0.391-3.456c0.112-0.33,0.273-0.582,0.411-0.642l202.333-88.045c0.137-0.06,0.432-0.006,0.75,0.137
		c0.737,0.333,1.706,1.199,2.261,2.642l25.738,85.066l0.07,0.198c0.718,2.023,0.039,3.376-0.267,3.509L124.97,287.043z"/>
	<path fill="#FFFFFF" d="M366.363,346.626l-178.969,77.879c-5.901,2.567-12.765-0.135-15.333-6.035l-46.328-106.464
		c-2.567-5.901,0.134-12.766,6.035-15.333l178.969-77.879c5.9-2.567,12.765,0.135,15.333,6.035l46.327,106.465
		C374.966,337.194,372.263,344.059,366.363,346.626"/>
	
		<rect x="142.835" y="267.438" transform="matrix(0.9169 -0.399 0.399 0.9169 -100.5558 121.009)" fill="#E1E0FE" width="195.141" height="69.236"/>
	<path fill="#CACAED" d="M144.955,317.686l5.725-2.491c0.666-0.289,0.97-1.064,0.681-1.73l-2.491-5.724
		c-0.29-0.666-1.064-0.971-1.729-0.681l-5.726,2.491c-0.666,0.29-0.97,1.064-0.68,1.73l2.491,5.724
		C143.516,317.671,144.289,317.976,144.955,317.686"/>
	<path fill="#CACAED" d="M150.008,329.294l5.722-2.49c0.667-0.29,0.972-1.065,0.682-1.732l-2.49-5.721
		c-0.29-0.666-1.065-0.972-1.731-0.682l-5.723,2.49c-0.666,0.29-0.971,1.065-0.682,1.732l2.491,5.721
		C148.566,329.279,149.34,329.584,150.008,329.294"/>
	<path fill="#CACAED" d="M159.712,325.071l5.723-2.49c0.666-0.29,0.971-1.066,0.681-1.732l-2.49-5.722
		c-0.29-0.666-1.065-0.971-1.731-0.681l-5.723,2.489c-0.666,0.29-0.971,1.066-0.681,1.732l2.49,5.722
		C158.271,325.055,159.046,325.36,159.712,325.071"/>
	<path fill="#CACAED" d="M175.298,328.774l-2.49-5.723c-0.29-0.666-1.065-0.971-1.731-0.681l-5.723,2.49
		c-0.666,0.29-0.971,1.065-0.681,1.731l2.49,5.722c0.29,0.667,1.065,0.972,1.731,0.682l5.723-2.491
		C175.283,330.214,175.588,329.44,175.298,328.774"/>
	<path fill="#CACAED" d="M154.368,339.316l10.575-4.602c0.666-0.29,0.971-1.065,0.681-1.731l-2.489-5.723
		c-0.29-0.666-1.066-0.971-1.732-0.681l-10.575,4.601c-0.666,0.29-0.971,1.066-0.681,1.732l2.49,5.722
		C152.927,339.3,153.702,339.606,154.368,339.316"/>
	<path fill="#CACAED" d="M178.631,328.759l5.722-2.49c0.667-0.29,0.971-1.066,0.682-1.732l-2.49-5.722
		c-0.29-0.666-1.065-0.971-1.732-0.682l-5.722,2.49c-0.667,0.29-0.971,1.066-0.682,1.732l2.491,5.722
		C177.19,328.743,177.964,329.048,178.631,328.759"/>
	<path fill="#CACAED" d="M194.771,320.3l-2.49-5.722c-0.29-0.667-1.065-0.971-1.731-0.681l-5.722,2.49
		c-0.667,0.29-0.972,1.064-0.682,1.73l2.49,5.723c0.29,0.666,1.065,0.972,1.731,0.682l5.723-2.491
		C194.756,321.741,195.061,320.967,194.771,320.3"/>
	<path fill="#CACAED" d="M198.104,320.284l5.723-2.489c0.666-0.29,0.971-1.066,0.681-1.732l-2.49-5.722
		c-0.29-0.666-1.065-0.972-1.731-0.682l-5.723,2.49c-0.666,0.29-0.971,1.066-0.681,1.732l2.49,5.722
		C196.663,320.269,197.438,320.574,198.104,320.284"/>
	<path fill="#CACAED" d="M207.841,316.048l5.722-2.49c0.667-0.29,0.972-1.066,0.682-1.732l-2.49-5.722
		c-0.29-0.666-1.065-0.971-1.732-0.681l-5.722,2.49c-0.667,0.289-0.971,1.065-0.682,1.731l2.491,5.722
		C206.4,316.032,207.174,316.338,207.841,316.048"/>
	<path fill="#CACAED" d="M213.356,305.407l2.49,5.723c0.29,0.666,1.065,0.97,1.731,0.68l5.723-2.49
		c0.666-0.29,0.972-1.064,0.681-1.73l-2.49-5.723c-0.29-0.666-1.065-0.972-1.731-0.682l-5.722,2.491
		C213.371,303.966,213.066,304.741,213.356,305.407"/>
	<path fill="#CACAED" d="M223.093,301.17l2.49,5.723c0.29,0.666,1.065,0.971,1.732,0.681l5.721-2.49
		c0.666-0.29,0.972-1.065,0.682-1.731l-2.49-5.723c-0.29-0.666-1.065-0.971-1.732-0.681l-5.721,2.49
		C223.108,299.729,222.803,300.504,223.093,301.17"/>
	<path fill="#CACAED" d="M232.829,296.933l2.49,5.722c0.29,0.667,1.066,0.971,1.732,0.681l5.722-2.49
		c0.666-0.29,0.971-1.064,0.681-1.731l-2.49-5.722c-0.289-0.667-1.065-0.972-1.731-0.682l-5.722,2.491
		C232.845,295.492,232.539,296.266,232.829,296.933"/>
	<path fill="#CACAED" d="M242.567,292.696l2.489,5.723c0.29,0.666,1.066,0.97,1.732,0.68l5.722-2.489
		c0.666-0.29,0.972-1.065,0.682-1.731l-2.49-5.723c-0.29-0.666-1.066-0.972-1.732-0.682l-5.722,2.491
		C242.582,291.255,242.277,292.03,242.567,292.696"/>
	<path fill="#CACAED" d="M262.928,290.641l-2.49-5.723c-0.29-0.666-1.065-0.97-1.732-0.68l-5.721,2.49
		c-0.667,0.289-0.972,1.064-0.682,1.73l2.49,5.723c0.29,0.666,1.065,0.972,1.732,0.682l5.721-2.491
		C262.913,292.082,263.218,291.307,262.928,290.641"/>
	<path fill="#CACAED" d="M266.261,290.626l5.723-2.49c0.666-0.289,0.97-1.065,0.68-1.731l-2.489-5.722
		c-0.29-0.666-1.065-0.972-1.731-0.682l-5.723,2.49c-0.666,0.29-0.972,1.066-0.682,1.732l2.491,5.722
		C264.82,290.611,265.595,290.916,266.261,290.626"/>
	<path fill="#CACAED" d="M282.401,282.168l-2.49-5.723c-0.29-0.666-1.066-0.97-1.732-0.68l-5.722,2.489
		c-0.666,0.29-0.971,1.065-0.681,1.731l2.489,5.723c0.29,0.666,1.066,0.972,1.732,0.682l5.722-2.491
		C282.385,283.609,282.691,282.834,282.401,282.168"/>
	<path fill="#CACAED" d="M169.417,320.848l5.723-2.49c0.666-0.29,0.971-1.065,0.681-1.731l-2.49-5.722
		c-0.29-0.666-1.065-0.972-1.731-0.682l-5.723,2.49c-0.666,0.29-0.971,1.066-0.681,1.732l2.49,5.721
		C167.976,320.833,168.751,321.138,169.417,320.848"/>
	<path fill="#CACAED" d="M179.122,316.625l5.723-2.49c0.666-0.29,0.971-1.066,0.681-1.732l-2.49-5.722
		c-0.29-0.666-1.065-0.971-1.731-0.681l-5.723,2.489c-0.666,0.29-0.971,1.066-0.681,1.732l2.49,5.722
		C177.681,316.609,178.456,316.915,179.122,316.625"/>
	<path fill="#CACAED" d="M188.827,312.401l5.722-2.49c0.667-0.289,0.971-1.065,0.682-1.731l-2.49-5.722
		c-0.29-0.666-1.065-0.972-1.731-0.682l-5.723,2.49c-0.667,0.29-0.971,1.066-0.682,1.732l2.491,5.722
		C187.386,312.386,188.16,312.691,188.827,312.401"/>
	<path fill="#CACAED" d="M198.532,308.179l5.723-2.49c0.666-0.29,0.971-1.066,0.681-1.732l-2.49-5.722
		c-0.29-0.666-1.065-0.971-1.731-0.681l-5.723,2.49c-0.666,0.289-0.971,1.065-0.681,1.731l2.49,5.722
		C197.091,308.163,197.866,308.469,198.532,308.179"/>
	<path fill="#CACAED" d="M164.365,309.24l5.725-2.491c0.666-0.289,0.97-1.064,0.681-1.729l-2.492-5.725
		c-0.289-0.666-1.063-0.971-1.729-0.681l-5.725,2.491c-0.666,0.29-0.97,1.064-0.681,1.73l2.492,5.724
		C162.925,309.225,163.699,309.53,164.365,309.24"/>
	<path fill="#CACAED" d="M174.07,305.017l5.725-2.491c0.666-0.29,0.971-1.065,0.681-1.73l-2.491-5.725
		c-0.29-0.665-1.064-0.97-1.729-0.68l-5.726,2.491c-0.665,0.289-0.97,1.064-0.68,1.729l2.491,5.725
		C172.63,305.001,173.404,305.306,174.07,305.017"/>
	<path fill="#CACAED" d="M183.775,300.794l5.725-2.491c0.666-0.289,0.97-1.064,0.681-1.729l-2.491-5.725
		c-0.29-0.665-1.064-0.97-1.729-0.681l-5.726,2.491c-0.666,0.29-0.97,1.064-0.681,1.73l2.492,5.724
		C182.336,300.779,183.109,301.084,183.775,300.794"/>
	<path fill="#CACAED" d="M193.48,296.571l5.725-2.491c0.666-0.29,0.97-1.064,0.681-1.73l-2.491-5.724
		c-0.29-0.666-1.064-0.971-1.73-0.681l-5.725,2.491c-0.666,0.289-0.97,1.064-0.681,1.73l2.492,5.724
		C192.04,296.555,192.814,296.86,193.48,296.571"/>
	<path fill="#CACAED" d="M208.237,303.955l5.723-2.489c0.666-0.29,0.971-1.066,0.681-1.732l-2.49-5.722
		c-0.29-0.666-1.065-0.972-1.731-0.682l-5.723,2.49c-0.666,0.29-0.971,1.066-0.681,1.732l2.49,5.722
		C206.796,303.94,207.571,304.245,208.237,303.955"/>
	<path fill="#CACAED" d="M220.125,289.107l-5.723,2.49c-0.666,0.29-0.971,1.065-0.681,1.731l2.49,5.722
		c0.29,0.666,1.065,0.972,1.731,0.682l5.723-2.49c0.666-0.29,0.971-1.066,0.681-1.732l-2.49-5.721
		C221.566,289.122,220.791,288.817,220.125,289.107"/>
	<path fill="#CACAED" d="M229.829,284.884l-5.723,2.49c-0.666,0.29-0.97,1.066-0.68,1.732l2.49,5.722
		c0.289,0.666,1.064,0.971,1.73,0.681l5.723-2.489c0.666-0.29,0.972-1.066,0.682-1.732l-2.491-5.722
		C231.27,284.9,230.495,284.594,229.829,284.884"/>
	<path fill="#CACAED" d="M239.534,280.661l-5.723,2.49c-0.666,0.29-0.97,1.065-0.68,1.732l2.489,5.721
		c0.29,0.666,1.065,0.972,1.731,0.682l5.723-2.49c0.666-0.29,0.972-1.065,0.682-1.732l-2.491-5.721
		C240.975,280.676,240.2,280.371,239.534,280.661"/>
	<path fill="#CACAED" d="M242.835,280.659l2.49,5.723c0.29,0.666,1.066,0.97,1.732,0.681l5.722-2.49
		c0.666-0.29,0.971-1.065,0.681-1.731l-2.489-5.723c-0.29-0.666-1.066-0.971-1.732-0.682l-5.722,2.491
		C242.851,279.218,242.546,279.993,242.835,280.659"/>
	<path fill="#CACAED" d="M256.762,282.84l5.723-2.49c0.666-0.29,0.97-1.065,0.68-1.732l-2.489-5.721
		c-0.29-0.667-1.065-0.972-1.731-0.682l-5.723,2.49c-0.666,0.29-0.972,1.065-0.682,1.732l2.491,5.721
		C255.321,282.825,256.096,283.13,256.762,282.84"/>
	<path fill="#CACAED" d="M266.467,278.617l5.722-2.49c0.667-0.29,0.971-1.066,0.681-1.732l-2.49-5.722
		c-0.29-0.666-1.064-0.971-1.73-0.681l-5.723,2.489c-0.666,0.29-0.972,1.066-0.682,1.732l2.491,5.722
		C265.026,278.601,265.801,278.906,266.467,278.617"/>
	<path fill="#CACAED" d="M276.172,274.393l5.722-2.49c0.667-0.29,0.971-1.065,0.681-1.731l-2.49-5.722
		c-0.29-0.666-1.064-0.972-1.731-0.682l-5.722,2.49c-0.667,0.29-0.972,1.066-0.682,1.732l2.491,5.721
		C274.731,274.378,275.505,274.683,276.172,274.393"/>
	<path fill="#CACAED" d="M288.059,259.546l-5.722,2.489c-0.667,0.29-0.971,1.066-0.681,1.732l2.49,5.722
		c0.29,0.666,1.064,0.972,1.73,0.682l5.723-2.49c0.666-0.29,0.972-1.066,0.682-1.732l-2.491-5.722
		C289.5,259.561,288.726,259.256,288.059,259.546"/>
	<path fill="#CACAED" d="M299.001,254.784l-5.723,2.49c-0.666,0.29-0.971,1.065-0.681,1.732l2.49,5.721
		c0.29,0.667,1.065,0.972,1.731,0.682l5.723-2.49c0.666-0.29,0.971-1.065,0.681-1.732l-2.491-5.721
		C300.442,254.8,299.667,254.494,299.001,254.784"/>
	<path fill="#CACAED" d="M308.706,250.56l-5.723,2.49c-0.666,0.29-0.971,1.066-0.681,1.732l2.49,5.722
		c0.29,0.666,1.064,0.971,1.731,0.682l5.723-2.49c0.666-0.29,0.971-1.066,0.681-1.732l-2.491-5.722
		C310.146,250.576,309.372,250.271,308.706,250.56"/>
	<path fill="#CACAED" d="M318.41,246.338l-5.722,2.49c-0.666,0.29-0.971,1.065-0.681,1.732l2.49,5.721
		c0.29,0.667,1.064,0.972,1.731,0.682l5.722-2.49c0.667-0.29,0.972-1.065,0.682-1.731l-2.491-5.722
		C319.851,246.354,319.077,246.048,318.41,246.338"/>
	<path fill="#CACAED" d="M303.362,264.806l-5.723,2.489c-0.667,0.29-0.971,1.066-0.681,1.732l2.49,5.722
		c0.29,0.666,1.064,0.972,1.731,0.682l5.722-2.49c0.667-0.29,0.972-1.066,0.682-1.732l-2.491-5.722
		C304.802,264.821,304.028,264.516,303.362,264.806"/>
	<path fill="#CACAED" d="M313.067,260.583l-5.722,2.49c-0.667,0.29-0.971,1.066-0.681,1.732l2.49,5.722
		c0.29,0.666,1.064,0.971,1.731,0.681l5.722-2.49c0.666-0.289,0.972-1.065,0.682-1.731l-2.491-5.722
		C314.508,260.599,313.734,260.293,313.067,260.583"/>
	<path fill="#CACAED" d="M322.772,256.36l-5.722,2.49c-0.667,0.289-0.971,1.065-0.681,1.731l2.49,5.722
		c0.29,0.666,1.064,0.972,1.73,0.682l5.723-2.49c0.666-0.29,0.972-1.066,0.682-1.732l-2.491-5.722
		C324.213,256.375,323.438,256.07,322.772,256.36"/>
	<path fill="#CACAED" d="M307.723,274.828l-5.722,2.49c-0.667,0.29-0.971,1.066-0.681,1.732l2.49,5.722
		c0.29,0.666,1.064,0.971,1.73,0.681l5.723-2.49c0.666-0.289,0.972-1.065,0.682-1.731l-2.491-5.722
		C309.164,274.844,308.39,274.538,307.723,274.828"/>
	<path fill="#CACAED" d="M317.428,270.605l-5.723,2.49c-0.666,0.289-0.97,1.065-0.68,1.731l2.49,5.722
		c0.289,0.666,1.064,0.972,1.73,0.682l5.723-2.49c0.666-0.29,0.972-1.065,0.682-1.732l-2.491-5.721
		C318.869,270.62,318.094,270.315,317.428,270.605"/>
	<path fill="#CACAED" d="M327.133,266.382l-5.723,2.49c-0.666,0.29-0.97,1.066-0.68,1.732l2.489,5.722
		c0.29,0.666,1.065,0.971,1.731,0.681l5.723-2.489c0.666-0.29,0.972-1.066,0.682-1.732l-2.491-5.722
		C328.574,266.398,327.799,266.092,327.133,266.382"/>
	<path fill="#CACAED" d="M316.445,294.872l-5.723,2.49c-0.666,0.29-0.971,1.066-0.681,1.732l2.49,5.722
		c0.29,0.666,1.065,0.972,1.731,0.682l5.723-2.49c0.666-0.29,0.971-1.066,0.682-1.732l-2.491-5.722
		C317.886,294.888,317.111,294.583,316.445,294.872"/>
	<path fill="#CACAED" d="M326.151,290.649l-5.723,2.49c-0.666,0.29-0.971,1.065-0.681,1.732l2.49,5.721
		c0.29,0.667,1.065,0.972,1.731,0.682l5.723-2.49c0.666-0.29,0.971-1.065,0.681-1.731l-2.491-5.722
		C327.591,290.664,326.816,290.359,326.151,290.649"/>
	<path fill="#CACAED" d="M335.856,286.427l-5.723,2.489c-0.666,0.29-0.971,1.066-0.681,1.732l2.49,5.722
		c0.29,0.666,1.065,0.972,1.731,0.682l5.723-2.49c0.666-0.29,0.971-1.066,0.681-1.732l-2.491-5.722
		C337.296,286.442,336.522,286.137,335.856,286.427"/>
	<path fill="#CACAED" d="M207.609,290.423l5.725-2.491c0.666-0.29,0.971-1.064,0.681-1.73l-2.491-5.724
		c-0.29-0.666-1.064-0.971-1.729-0.681l-5.726,2.491c-0.665,0.289-0.97,1.064-0.68,1.73l2.491,5.724
		C206.17,290.408,206.944,290.713,207.609,290.423"/>
	<path fill="#CACAED" d="M217.599,286.075l5.725-2.491c0.665-0.289,0.97-1.064,0.681-1.729l-2.491-5.725
		c-0.29-0.665-1.064-0.97-1.73-0.681l-5.725,2.491c-0.666,0.29-0.97,1.064-0.681,1.73l2.492,5.724
		C216.16,286.06,216.933,286.365,217.599,286.075"/>
	<path fill="#CACAED" d="M227.59,281.728l5.725-2.491c0.666-0.29,0.97-1.065,0.68-1.73l-2.491-5.725
		c-0.29-0.665-1.063-0.97-1.729-0.681l-5.725,2.491c-0.666,0.29-0.971,1.065-0.681,1.73l2.492,5.725
		C226.15,281.712,226.924,282.017,227.59,281.728"/>
	<path fill="#CACAED" d="M237.58,277.381l5.725-2.491c0.666-0.29,0.97-1.064,0.68-1.73l-2.491-5.724
		c-0.289-0.666-1.063-0.971-1.729-0.681l-5.725,2.491c-0.666,0.289-0.971,1.064-0.681,1.73l2.492,5.724
		C236.14,277.366,236.914,277.671,237.58,277.381"/>
	<path fill="#CACAED" d="M251.709,271.232l5.726-2.491c0.665-0.289,0.969-1.064,0.68-1.73l-2.492-5.724
		c-0.289-0.666-1.063-0.971-1.728-0.681l-5.726,2.491c-0.665,0.29-0.97,1.064-0.681,1.73l2.492,5.724
		C250.27,271.217,251.044,271.522,251.709,271.232"/>
	<path fill="#CACAED" d="M261.414,267.01l5.725-2.491c0.666-0.29,0.97-1.065,0.68-1.73l-2.491-5.725
		c-0.289-0.665-1.063-0.97-1.728-0.681l-5.726,2.492c-0.665,0.289-0.97,1.064-0.681,1.729l2.492,5.725
		C259.975,266.994,260.748,267.299,261.414,267.01"/>
	<path fill="#CACAED" d="M271.119,262.786l5.725-2.491c0.666-0.289,0.97-1.064,0.68-1.729l-2.491-5.725
		c-0.289-0.666-1.063-0.971-1.729-0.681l-5.725,2.491c-0.666,0.29-0.971,1.064-0.681,1.73l2.492,5.724
		C269.68,262.771,270.453,263.076,271.119,262.786"/>
	<path fill="#CACAED" d="M283.009,247.937l-5.725,2.491c-0.666,0.289-0.97,1.064-0.68,1.729l2.491,5.725
		c0.289,0.665,1.063,0.97,1.729,0.681l5.725-2.491c0.666-0.29,0.971-1.065,0.681-1.73l-2.492-5.725
		C284.448,247.952,283.675,247.647,283.009,247.937"/>
	<path fill="#CACAED" d="M293.951,243.176l-5.726,2.491c-0.665,0.289-0.969,1.064-0.68,1.73l2.491,5.724
		c0.29,0.666,1.064,0.971,1.729,0.681l5.726-2.491c0.665-0.289,0.97-1.064,0.681-1.73l-2.492-5.724
		C295.39,243.191,294.616,242.886,293.951,243.176"/>
	<path fill="#CACAED" d="M303.656,238.952l-5.726,2.492c-0.665,0.289-0.969,1.063-0.68,1.728l2.491,5.726
		c0.29,0.665,1.064,0.97,1.729,0.68l5.726-2.491c0.665-0.29,0.97-1.064,0.68-1.729l-2.491-5.726
		C305.095,238.967,304.321,238.662,303.656,238.952"/>
	<path fill="#CACAED" d="M313.361,234.729l-5.725,2.491c-0.665,0.29-0.969,1.064-0.68,1.73l2.491,5.724
		c0.29,0.666,1.063,0.971,1.729,0.681l5.725-2.491c0.666-0.289,0.971-1.064,0.681-1.73l-2.492-5.724
		C314.8,234.744,314.026,234.439,313.361,234.729"/>
	<path fill="#CACAED" d="M176.094,341.782l5.722-2.49c0.667-0.29,0.972-1.065,0.682-1.732l-2.49-5.721
		c-0.29-0.667-1.065-0.972-1.731-0.682l-5.723,2.49c-0.666,0.29-0.971,1.065-0.681,1.731l2.49,5.722
		C174.653,341.766,175.428,342.072,176.094,341.782"/>
	<path fill="#CACAED" d="M158.73,349.338l13.382-5.822c0.666-0.29,0.971-1.066,0.681-1.732l-2.49-5.722
		c-0.29-0.666-1.065-0.972-1.731-0.682l-13.382,5.823c-0.666,0.29-0.971,1.066-0.681,1.732l2.49,5.722
		C157.289,349.323,158.064,349.628,158.73,349.338"/>
	<path fill="#CACAED" d="M192.234,333.324l-2.49-5.723c-0.29-0.666-1.065-0.971-1.732-0.681l-5.722,2.49
		c-0.666,0.29-0.971,1.065-0.681,1.731l2.49,5.723c0.29,0.666,1.065,0.971,1.731,0.681l5.722-2.49
		C192.219,334.765,192.524,333.99,192.234,333.324"/>
	<path fill="#CACAED" d="M195.567,333.308l5.723-2.49c0.666-0.29,0.971-1.066,0.681-1.732l-2.49-5.722
		c-0.29-0.666-1.065-0.971-1.731-0.681l-5.723,2.489c-0.666,0.29-0.971,1.066-0.681,1.732l2.49,5.722
		C194.126,333.292,194.901,333.598,195.567,333.308"/>
	<path fill="#CACAED" d="M211.708,324.85l-2.49-5.723c-0.29-0.666-1.065-0.971-1.731-0.681l-5.723,2.49
		c-0.666,0.29-0.971,1.065-0.681,1.731l2.49,5.722c0.29,0.667,1.065,0.972,1.731,0.682l5.723-2.491
		C211.693,326.292,211.998,325.516,211.708,324.85"/>
	<path fill="#CACAED" d="M221.445,320.613l-2.49-5.723c-0.29-0.666-1.065-0.97-1.732-0.681l-5.722,2.49
		c-0.666,0.29-0.972,1.065-0.681,1.731l2.49,5.723c0.29,0.666,1.065,0.972,1.731,0.682l5.722-2.491
		C221.429,322.054,221.734,321.279,221.445,320.613"/>
	<path fill="#CACAED" d="M231.181,316.376l-2.49-5.722c-0.29-0.667-1.065-0.971-1.732-0.681l-5.722,2.49
		c-0.666,0.29-0.971,1.064-0.681,1.73l2.49,5.723c0.29,0.667,1.065,0.972,1.732,0.682l5.721-2.491
		C231.166,317.817,231.471,317.043,231.181,316.376"/>
	<path fill="#CACAED" d="M240.917,312.14l-2.489-5.723c-0.29-0.666-1.066-0.971-1.732-0.681l-5.722,2.49
		c-0.666,0.29-0.972,1.065-0.682,1.731l2.49,5.723c0.29,0.666,1.066,0.971,1.732,0.681l5.722-2.49
		C240.902,313.581,241.207,312.806,240.917,312.14"/>
	<path fill="#CACAED" d="M250.654,307.902l-2.49-5.723c-0.29-0.666-1.066-0.97-1.732-0.68l-5.722,2.49
		c-0.666,0.289-0.971,1.064-0.681,1.73l2.489,5.723c0.29,0.666,1.066,0.972,1.732,0.682l5.722-2.491
		C250.638,309.343,250.944,308.568,250.654,307.902"/>
	<path fill="#CACAED" d="M260.391,303.666l-2.49-5.723c-0.29-0.666-1.065-0.971-1.731-0.681l-5.722,2.49
		c-0.667,0.29-0.972,1.065-0.682,1.731l2.49,5.723c0.29,0.666,1.065,0.971,1.732,0.681l5.721-2.491
		C260.376,305.107,260.681,304.332,260.391,303.666"/>
	<path fill="#CACAED" d="M263.724,303.65l5.723-2.49c0.666-0.29,0.97-1.066,0.68-1.732l-2.489-5.722
		c-0.29-0.666-1.065-0.971-1.731-0.681l-5.723,2.489c-0.666,0.29-0.972,1.066-0.682,1.732l2.491,5.722
		C262.283,303.634,263.058,303.94,263.724,303.65"/>
	<path fill="#CACAED" d="M279.864,295.191l-2.49-5.722c-0.29-0.666-1.066-0.971-1.732-0.681l-5.722,2.49
		c-0.666,0.29-0.971,1.064-0.681,1.731l2.49,5.722c0.289,0.667,1.065,0.972,1.731,0.682l5.722-2.491
		C279.848,296.632,280.154,295.858,279.864,295.191"/>
	<path fill="#CACAED" d="M184.538,350.027l5.723-2.49c0.666-0.29,0.971-1.065,0.681-1.732l-2.49-5.721
		c-0.29-0.667-1.065-0.972-1.731-0.682l-5.723,2.49c-0.666,0.29-0.971,1.065-0.681,1.732l2.49,5.721
		C183.097,350.012,183.872,350.317,184.538,350.027"/>
	<path fill="#CACAED" d="M163.09,359.36l17.45-7.593c0.666-0.29,0.971-1.065,0.681-1.731l-2.49-5.723
		c-0.29-0.666-1.065-0.971-1.731-0.682l-17.45,7.594c-0.666,0.29-0.971,1.065-0.681,1.731l2.49,5.722
		C161.649,359.345,162.424,359.65,163.09,359.36"/>
	<path fill="#CACAED" d="M200.663,341.576l-2.49-5.723c-0.29-0.666-1.065-0.97-1.731-0.681l-5.722,2.49
		c-0.667,0.29-0.972,1.065-0.682,1.731l2.49,5.723c0.29,0.666,1.065,0.971,1.731,0.682l5.723-2.491
		C200.648,343.017,200.953,342.242,200.663,341.576"/>
	<path fill="#CACAED" d="M198.337,346.267l-8.538,3.715c-0.666,0.29-0.971,1.064-0.681,1.731l2.49,5.722
		c0.29,0.667,1.065,0.972,1.731,0.682l8.538-3.715c0.666-0.29,0.971-1.065,0.681-1.732l-2.49-5.721
		C199.778,346.282,199.003,345.977,198.337,346.267"/>
	<path fill="#CACAED" d="M256.17,321.101l-53.851,23.433c-0.666,0.29-0.971,1.065-0.681,1.731l2.49,5.723
		c0.29,0.666,1.065,0.97,1.731,0.681l53.851-23.433c0.666-0.29,0.971-1.066,0.682-1.732l-2.491-5.722
		C257.611,321.116,256.836,320.811,256.17,321.101"/>
	<path fill="#CACAED" d="M203.98,341.567l5.723-2.49c0.666-0.29,0.971-1.065,0.681-1.732l-2.49-5.721
		c-0.29-0.667-1.065-0.972-1.731-0.682l-5.723,2.49c-0.666,0.29-0.971,1.065-0.681,1.732l2.49,5.721
		C202.539,341.552,203.314,341.857,203.98,341.567"/>
	<path fill="#CACAED" d="M213.701,337.338l5.722-2.49c0.667-0.29,0.972-1.066,0.682-1.732l-2.49-5.722
		c-0.29-0.666-1.065-0.972-1.732-0.682l-5.722,2.49c-0.666,0.29-0.971,1.066-0.682,1.732l2.491,5.722
		C212.26,337.322,213.034,337.627,213.701,337.338"/>
	<path fill="#CACAED" d="M223.421,333.107l5.723-2.49c0.666-0.29,0.971-1.065,0.681-1.732l-2.49-5.721
		c-0.29-0.667-1.064-0.972-1.731-0.682l-5.723,2.49c-0.666,0.29-0.971,1.065-0.681,1.732l2.49,5.721
		C221.98,333.092,222.755,333.397,223.421,333.107"/>
	<path fill="#CACAED" d="M233.143,328.877l5.722-2.489c0.667-0.29,0.971-1.066,0.681-1.732l-2.49-5.722
		c-0.29-0.666-1.064-0.971-1.731-0.682l-5.722,2.49c-0.667,0.29-0.972,1.066-0.682,1.732l2.491,5.722
		C231.702,328.862,232.476,329.167,233.143,328.877"/>
	<path fill="#CACAED" d="M242.863,324.647l5.722-2.49c0.667-0.29,0.971-1.065,0.681-1.732l-2.49-5.721
		c-0.29-0.667-1.064-0.972-1.73-0.682l-5.723,2.49c-0.666,0.29-0.972,1.065-0.682,1.731l2.491,5.722
		C241.422,324.632,242.196,324.937,242.863,324.647"/>
	<path fill="#CACAED" d="M252.584,320.417l5.723-2.489c0.666-0.29,0.97-1.066,0.68-1.732l-2.49-5.722
		c-0.289-0.666-1.064-0.972-1.73-0.682l-5.723,2.49c-0.666,0.29-0.972,1.066-0.682,1.732l2.491,5.722
		C251.143,320.402,251.918,320.707,252.584,320.417"/>
	<path fill="#CACAED" d="M264.487,305.562l-5.723,2.49c-0.666,0.289-0.971,1.065-0.681,1.731l2.49,5.722
		c0.29,0.666,1.065,0.972,1.731,0.682l5.723-2.49c0.666-0.29,0.971-1.065,0.681-1.732l-2.491-5.722
		C265.928,305.577,265.153,305.272,264.487,305.562"/>
	<path fill="#CACAED" d="M268.254,315.843l-8.078,3.516c-0.666,0.289-0.971,1.064-0.681,1.73l2.49,5.723
		c0.29,0.666,1.065,0.971,1.731,0.681l8.077-3.514c0.667-0.29,0.972-1.066,0.682-1.732l-2.491-5.722
		C269.694,315.859,268.92,315.554,268.254,315.843"/>
	<path fill="#CACAED" d="M280.314,310.596l-8.077,3.515c-0.666,0.29-0.972,1.064-0.682,1.731l2.49,5.722
		c0.29,0.667,1.065,0.971,1.732,0.681l8.077-3.514c0.666-0.29,0.971-1.066,0.681-1.732l-2.49-5.722
		C281.755,310.611,280.98,310.306,280.314,310.596"/>
	<path fill="#CACAED" d="M185.817,351.716l-8.077,3.515c-0.667,0.29-0.971,1.064-0.682,1.731l2.49,5.722
		c0.29,0.666,1.065,0.971,1.732,0.681l8.077-3.514c0.666-0.29,0.971-1.066,0.682-1.732l-2.491-5.722
		C187.258,351.731,186.484,351.426,185.817,351.716"/>
	<path fill="#CACAED" d="M173.758,356.963l-9.846,4.284c-0.666,0.29-0.971,1.066-0.681,1.732l2.49,5.722
		c0.29,0.666,1.065,0.971,1.731,0.682l9.846-4.284c0.666-0.29,0.971-1.066,0.681-1.732l-2.49-5.722
		C175.199,356.979,174.423,356.673,173.758,356.963"/>
	<path fill="#CACAED" d="M292.358,305.354l-8.077,3.515c-0.667,0.29-0.972,1.065-0.682,1.731l2.49,5.723
		c0.29,0.666,1.065,0.97,1.732,0.68l8.077-3.514c0.666-0.29,0.971-1.065,0.682-1.732l-2.491-5.721
		C293.799,305.369,293.024,305.064,292.358,305.354"/>
	<path fill="#CACAED" d="M305.503,299.634l-9.163,3.987c-0.666,0.29-0.972,1.066-0.682,1.732l2.491,5.722
		c0.29,0.666,1.065,0.971,1.731,0.682l9.163-3.988c0.667-0.289,0.972-1.065,0.682-1.731l-2.491-5.722
		C306.944,299.65,306.17,299.344,305.503,299.634"/>
	<path fill="#CACAED" d="M272.026,311.957l5.723-2.489c0.666-0.29,0.97-1.066,0.68-1.732l-2.489-5.722
		c-0.29-0.666-1.065-0.972-1.731-0.682l-5.723,2.49c-0.666,0.29-0.972,1.066-0.682,1.732l2.491,5.722
		C270.585,311.942,271.359,312.247,272.026,311.957"/>
	<path fill="#CACAED" d="M321.789,280.627l-5.723,2.49c-0.666,0.29-0.97,1.066-0.681,1.732l2.49,5.722
		c0.29,0.666,1.065,0.971,1.731,0.682l5.723-2.49c0.666-0.29,0.971-1.066,0.682-1.732l-2.491-5.722
		C323.23,280.643,322.455,280.338,321.789,280.627"/>
	<path fill="#CACAED" d="M301.143,289.611l-22.794,9.919c-0.666,0.29-0.971,1.065-0.681,1.731l2.49,5.723
		c0.29,0.666,1.065,0.971,1.731,0.681l22.794-9.918c0.666-0.29,0.971-1.066,0.681-1.732l-2.491-5.722
		C302.584,289.627,301.809,289.322,301.143,289.611"/>
	<path fill="#CACAED" d="M292.452,269.554l-10.255,4.462c-0.648,0.282-0.945,1.037-0.663,1.685l3.095,7.112l0.23,0.53
		c0.29,0.666-0.014,1.441-0.681,1.732l-0.641,0.279l-3.753,1.633c-0.667,0.29-0.972,1.064-0.682,1.73l2.491,5.723
		c0.29,0.666,1.064,0.971,1.73,0.681l16.998-7.396c0.666-0.29,0.971-1.065,0.681-1.732l-6.865-15.776
		C293.855,269.569,293.1,269.272,292.452,269.554"/>
	<path fill="#CACAED" d="M179.181,274.501l-0.079-0.182c-0.176-0.405-0.391-0.783-0.629-1.139l-32.709,14.233
		c0.099,0.417,0.229,0.831,0.405,1.237l0.079,0.181c0.193,0.443,0.427,0.856,0.692,1.24l32.677-14.219
		C179.516,275.397,179.374,274.943,179.181,274.501"/>
	<path fill="#CACAED" d="M261.992,238.813l0.08,0.183c0.121,0.278,0.261,0.541,0.411,0.797l33.156-14.428
		c-0.084-0.284-0.181-0.566-0.302-0.844l-0.079-0.183c-0.25-0.574-0.571-1.094-0.938-1.569l-32.838,14.289
		C261.58,237.65,261.743,238.239,261.992,238.813"/>
	<path fill="#E1E0FE" d="M300.252,365.744l-53.7,23.368c-4.526,1.969-9.79-0.102-11.759-4.628l-8.929-20.518
		c-1.968-4.525,0.103-9.789,4.628-11.759l53.701-23.367c4.525-1.97,9.789,0.102,11.758,4.628l8.929,20.518
		C306.85,358.511,304.777,363.775,300.252,365.744"/>
	<g opacity="0.5">
		<g>
			<defs>
				<rect id="SVGID_21_" x="132.964" y="160.354" width="46.578" height="122.173"/>
			</defs>
			<clipPath id="SVGID_22_">
				<use xlink:href="#SVGID_21_"  overflow="visible"/>
			</clipPath>
			<polygon clip-path="url(#SVGID_22_)" fill="#361E54" points="177.156,160.354 179.541,263.296 135.349,282.527 132.963,179.584 
							"/>
		</g>
	</g>
	<g opacity="0.5">
		<g>
			<defs>
				<rect id="SVGID_23_" x="190.154" y="148.767" width="16.016" height="108.876"/>
			</defs>
			<clipPath id="SVGID_24_">
				<use xlink:href="#SVGID_23_"  overflow="visible"/>
			</clipPath>
			<polygon clip-path="url(#SVGID_24_)" fill="#361E54" points="203.785,148.766 206.17,251.708 192.533,257.643 190.154,154.698 
							"/>
		</g>
	</g>
	<g opacity="0.5">
		<g>
			<defs>
				<rect id="SVGID_25_" x="226.56" y="119.626" width="46.572" height="122.175"/>
			</defs>
			<clipPath id="SVGID_26_">
				<use xlink:href="#SVGID_25_"  overflow="visible"/>
			</clipPath>
			<polygon clip-path="url(#SVGID_26_)" fill="#361E54" points="270.752,119.626 273.132,222.571 228.94,241.802 226.56,138.856 			
				"/>
		</g>
	</g>
	<g opacity="0.5">
		<g>
			<defs>
				<rect id="SVGID_27_" x="283.955" y="123.113" width="15.806" height="93.802"/>
			</defs>
			<clipPath id="SVGID_28_">
				<use xlink:href="#SVGID_27_"  overflow="visible"/>
			</clipPath>
			<polygon clip-path="url(#SVGID_28_)" fill="#361E54" points="283.955,123.113 298.866,172.413 299.761,210.983 286.129,216.915 
							"/>
		</g>
	</g>
	<g opacity="0.1">
		<g>
			<defs>
				<rect id="SVGID_29_" x="309.573" y="123.674" width="76.751" height="114.08"/>
			</defs>
			<clipPath id="SVGID_30_">
				<use xlink:href="#SVGID_29_"  overflow="visible"/>
			</clipPath>
			<path clip-path="url(#SVGID_30_)" fill="#444444" d="M381.187,134.778l-34.033-10.761c-3.866-1.222-7.992,0.919-9.216,4.788
				l-28.021,88.62c-1.223,3.871,0.92,8.001,4.787,9.224l34.033,10.76c3.87,1.224,8-0.923,9.223-4.793l28.021-88.62
				C387.205,140.126,385.058,136.002,381.187,134.778"/>
		</g>
	</g>
	<g opacity="0.1">
		<g>
			<defs>
				<rect id="SVGID_31_" x="143.697" y="391.774" width="66.976" height="45.918"/>
			</defs>
			<clipPath id="SVGID_32_">
				<use xlink:href="#SVGID_31_"  overflow="visible"/>
			</clipPath>
			<path clip-path="url(#SVGID_32_)" fill="#444444" d="M207.881,424.382c-0.252-0.126-0.511-0.223-0.771-0.305l1.17-2.331
				c1.063-2.115,0.21-4.69-1.905-5.752l-40.297-20.244l0.163-0.323l-1.546-0.776l-1.271,2.529l-10.466-5.258
				c-0.686-0.344-1.52-0.068-1.864,0.616l-7.249,14.431c-0.345,0.685-0.068,1.519,0.617,1.863c0,0,4.874,2.449,10.467,5.258
				l-1.229,2.447l1.545,0.777l0.163-0.323l40.296,20.244c2.115,1.061,4.69,0.21,5.753-1.906l1.17-2.33
				c0.222,0.161,0.454,0.31,0.706,0.436c2.498,1.256,5.544,0.248,6.8-2.252S210.379,425.638,207.881,424.382 M208.391,430.308
				c-0.772,1.537-2.646,2.158-4.183,1.386c-0.256-0.129-0.484-0.289-0.688-0.473l2.696-5.366c0.269,0.054,0.534,0.141,0.79,0.269
				C208.544,426.897,209.164,428.77,208.391,430.308"/>
		</g>
	</g>
	<g opacity="0.1">
		<g>
			<defs>
				<rect id="SVGID_33_" x="351.771" y="265.144" width="35.005" height="57.912"/>
			</defs>
			<clipPath id="SVGID_34_">
				<use xlink:href="#SVGID_33_"  overflow="visible"/>
			</clipPath>
			<path clip-path="url(#SVGID_34_)" fill="#444444" d="M373.93,265.144h-8.156c-3.338,0-6.368,1.284-8.653,3.37
				c-3.236,2.333-5.35,6.125-5.35,10.419v31.275c0,7.096,5.751,12.848,12.846,12.848h8.157c3.338,0,6.368-1.283,8.652-3.37
				c3.236-2.333,5.35-6.125,5.35-10.419v-31.276C386.776,270.896,381.026,265.144,373.93,265.144"/>
		</g>
	</g>
	<path fill="#B4B4DB" d="M185.078,119.036L185.078,119.036c1.74,1.324,4.224,0.987,5.547-0.753l12.672-16.651l-6.301-4.794
		l-12.671,16.651C183.001,115.228,183.338,117.712,185.078,119.036"/>
	
		<rect x="194.431" y="87.012" transform="matrix(0.7958 0.6056 -0.6056 0.7958 100.2034 -101.5038)" fill="#CACAED" width="12.335" height="21.611"/>
	<path fill="#FFFFFF" d="M244.617,87.866c-9.7,12.747-27.896,15.211-40.643,5.51c-12.741-9.696-15.215-27.889-5.514-40.636
		c4.224-5.552,10.071-9.155,16.373-10.651c8.156-1.929,17.08-0.331,24.263,5.136c7.19,5.472,11.109,13.646,11.422,22.021
		C250.757,75.72,248.842,82.315,244.617,87.866"/>
	<path fill="#C71781" d="M236.922,82.012c-6.467,8.497-18.597,10.142-27.093,3.676c-8.494-6.465-10.141-18.594-3.676-27.091
		c6.467-8.497,18.597-10.142,27.09-3.677C241.74,61.386,243.388,73.515,236.922,82.012"/>
	<path fill="#474E5D" d="M233.14,79.134c-4.876,6.407-14.025,7.647-20.432,2.771c-6.406-4.875-7.648-14.022-2.772-20.43
		c4.876-6.407,14.023-7.648,20.43-2.773C236.773,63.578,238.016,72.727,233.14,79.134"/>
	<path fill="#CACAED" d="M230.066,76.795c-3.585,4.711-10.309,5.624-15.02,2.038c-4.71-3.584-5.622-10.308-2.037-15.019
		c3.584-4.71,10.309-5.623,15.018-2.039C232.738,65.36,233.651,72.085,230.066,76.795"/>
	<path fill="#F0F0FC" d="M227.59,74.91c-2.545,3.343-7.316,3.993-10.661,1.447c-3.341-2.543-3.989-7.316-1.444-10.659
		c2.543-3.343,7.317-3.992,10.659-1.448C229.487,66.795,230.134,71.567,227.59,74.91"/>
	<path fill="#474E5D" d="M224.293,72.401c-1.158,1.522-3.331,1.817-4.854,0.658c-1.521-1.157-1.814-3.329-0.656-4.851
		c1.157-1.521,3.33-1.817,4.85-0.66C225.156,68.707,225.45,70.88,224.293,72.401"/>
	<path fill="#8683E4" d="M219.44,73.058c-1.521-1.157-1.814-3.328-0.656-4.849c1.157-1.521,3.327-1.817,4.848-0.659
		c1.52,1.157,1.816,3.33,0.659,4.85C223.134,73.922,220.961,74.215,219.44,73.058"/>
	<path fill="#FFD23C" d="M250.519,69.246c-3.428,0.364-6.42-10.708-15.039-17.268c-8.613-6.555-20.083-6.488-20.646-9.889
		c8.156-1.929,17.08-0.331,24.263,5.136C246.287,52.696,250.206,60.871,250.519,69.246"/>
	<g opacity="0.2">
		<g>
			<defs>
				<rect id="SVGID_35_" x="219.426" y="68.075" width="2.105" height="2.105"/>
			</defs>
			<clipPath id="SVGID_36_">
				<use xlink:href="#SVGID_35_"  overflow="visible"/>
			</clipPath>
			<path clip-path="url(#SVGID_36_)" fill="#FFFFFF" d="M221.316,69.765c-0.352,0.462-1.013,0.551-1.475,0.2
				c-0.462-0.352-0.553-1.013-0.201-1.475c0.352-0.463,1.013-0.552,1.475-0.2C221.577,68.641,221.668,69.302,221.316,69.765"/>
		</g>
	</g>
	<path fill="#CACAED" d="M168.471,112.045L168.471,112.045c-0.832-2.257,0.324-4.761,2.581-5.593l21.605-7.962l3.012,8.175
		l-21.605,7.962C171.807,115.458,169.303,114.303,168.471,112.045"/>
	<path fill="#CACAED" d="M195.74,132.797L195.74,132.797c2.397,0.2,4.503-1.581,4.704-3.979l1.915-22.944l-8.682-0.725
		l-1.916,22.945C191.561,130.491,193.343,132.597,195.74,132.797"/>
	<g opacity="0.1">
		<g>
			<defs>
				<rect id="SVGID_37_" x="286.471" y="34.769" width="90.171" height="87.823"/>
			</defs>
			<clipPath id="SVGID_38_">
				<use xlink:href="#SVGID_37_"  overflow="visible"/>
			</clipPath>
			<path clip-path="url(#SVGID_38_)" fill="#444444" d="M290.281,105.688c-1.908,1.052-2.603,3.452-1.55,5.361l1.398,2.533
				c1.051,1.908,3.452,2.603,5.36,1.55l2.813-1.551l-5.208-9.444L290.281,105.688z"/>
			<path clip-path="url(#SVGID_38_)" fill="#444444" d="M376.137,66.022l-1.285-2.329c-1.083-1.965-3.554-2.679-5.519-1.596
				l-2.712,1.495l4.919,8.92l-9.196-16.677l-0.984,0.542c-5.968-8.907-15.309-15.326-25.449-18.003
				c-0.142-1.919-1.682-3.474-3.652-3.559c-8.438-0.369-16.995,1.518-24.749,5.457c-7.753,3.938-14.324,9.736-19.004,16.768
				c-1.115,1.676-0.729,3.895,0.817,5.127c-4.004,10.547-3.853,22.897,0.838,33.472l-1.344,0.741l13.763,24.958l5.621-3.099
				l1.303,2.362c1.027,1.862,3.369,2.539,5.232,1.512l8.094-4.464c1.863-1.028,2.541-3.369,1.514-5.232l-13.372-24.251l0.18-0.099
				l-0.18,0.099l-2.995-5.43c-1.027-1.863-3.37-2.541-5.233-1.513l-8.094,4.463c-1.864,1.027-2.54,3.371-1.513,5.233l2.994,5.431
				l-1.692-3.07l-0.903,0.497c-4.258-9.834-4.24-21.381-0.296-31.078c0.66-0.285,1.248-0.752,1.676-1.394
				c3.947-5.93,9.507-10.83,16.081-14.168c6.574-3.34,13.811-4.941,20.927-4.631c0.686,0.03,1.337-0.122,1.907-0.411
				c0.122-0.062,0.238-0.135,0.353-0.209c9.437,2.295,18.213,8.172,23.801,16.352l-1.262,0.696l-1.302-2.36
				c-1.027-1.863-3.371-2.541-5.233-1.514l-8.096,4.464c-1.862,1.028-2.539,3.371-1.513,5.234l16.368,29.681
				c1.027,1.863,3.37,2.539,5.232,1.512l8.096-4.464c1.862-1.027,2.541-3.369,1.513-5.232l-8.441-15.307l7.138,12.945l5.622-3.1
				l-4.278-7.756l2.712-1.496C376.505,70.457,377.22,67.987,376.137,66.022 M296.131,96.349l4.932,8.943L296.131,96.349z"/>
		</g>
	</g>
	<g opacity="0.1">
		<g>
			<defs>
				<rect id="SVGID_39_" x="10.37" y="225.363" width="88.537" height="82.175"/>
			</defs>
			<clipPath id="SVGID_40_">
				<use xlink:href="#SVGID_39_"  overflow="visible"/>
			</clipPath>
			<path clip-path="url(#SVGID_40_)" fill="#444444" d="M97.354,261.759l-56.87-35.881c-1.557-0.982-3.614-0.516-4.596,1.041
				l-25.003,39.628c-0.982,1.557-0.517,3.614,1.04,4.596l56.869,35.882c1.556,0.981,3.614,0.515,4.596-1.04l13.95-22.112
				l4.077-6.461l6.976-11.056C99.375,264.798,98.91,262.741,97.354,261.759"/>
		</g>
	</g>
	<path fill="#B7B7CE" d="M352.869,309.024c0,7.096,5.751,12.847,12.847,12.847h8.156c7.096,0,12.846-5.751,12.846-12.847v-31.276
		c0-7.095-5.75-12.847-12.846-12.847h-8.156c-7.096,0-12.847,5.752-12.847,12.847V309.024z"/>
	<path fill="#E1E1EF" d="M354.026,308.082c0,7.096,5.751,12.847,12.847,12.847h8.156c7.096,0,12.846-5.751,12.846-12.847v-31.276
		c0-7.095-5.75-12.847-12.846-12.847h-8.156c-7.096,0-12.847,5.752-12.847,12.847V308.082z"/>
	<path fill="#C71781" d="M367.212,277.745c0,2.063,1.674,3.736,3.738,3.736s3.738-1.673,3.738-3.736
		c0-2.065-1.674-3.738-3.738-3.738S367.212,275.68,367.212,277.745"/>
	<path fill="#CECDE8" d="M166.327,396.43c-0.104,0.012-0.167,0.02-0.167,0.02l-12.926-6.495c-0.686-0.344-1.52-0.068-1.864,0.617
		l-7.249,14.43c-0.344,0.686-0.068,1.519,0.618,1.864c0,0,6.466,3.249,13.051,6.556L166.327,396.43z"/>
	
		<rect x="146.242" y="404.586" transform="matrix(-0.8936 -0.4489 0.4489 -0.8936 109.0207 836.1476)" fill="#C71781" width="14.754" height="1.131"/>
	
		<rect x="145.294" y="406.474" transform="matrix(-0.8936 -0.4489 0.4489 -0.8936 106.3776 839.2974)" fill="#C71781" width="14.754" height="1.132"/>
	
		<rect x="147.179" y="402.721" transform="matrix(-0.8936 -0.4489 0.4489 -0.8936 111.6323 833.0363)" fill="#C71781" width="14.754" height="1.131"/>
	
		<rect x="148.116" y="400.855" transform="matrix(-0.8936 -0.4489 0.4489 -0.8936 114.2434 829.9267)" fill="#C71781" width="14.754" height="1.133"/>
	
		<rect x="149.053" y="398.99" transform="matrix(-0.8936 -0.4489 0.4489 -0.8936 116.8552 826.8145)" fill="#C71781" width="14.754" height="1.132"/>
	
		<rect x="149.99" y="397.126" transform="matrix(-0.8936 -0.4488 0.4488 -0.8936 119.4924 823.7072)" fill="#C71781" width="14.754" height="1.131"/>
	
		<rect x="157.737" y="388.451" transform="matrix(0.4486 -0.8937 0.8937 0.4486 -266.4738 359.7243)" fill="#C71781" width="1.132" height="14.753"/>
	<path fill="#FFD23C" d="M208.157,422.415c-0.252-0.126-0.51-0.224-0.771-0.305l1.17-2.331c1.063-2.115,0.21-4.69-1.905-5.752
		l-41.139-20.667l-10.671,21.24l41.14,20.667c2.114,1.063,4.689,0.21,5.752-1.906l1.17-2.329c0.222,0.16,0.454,0.309,0.706,0.436
		c2.499,1.255,5.544,0.247,6.8-2.252C211.665,426.715,210.655,423.67,208.157,422.415 M204.484,429.726
		c-0.256-0.128-0.484-0.289-0.687-0.473l2.696-5.366c0.268,0.055,0.533,0.141,0.789,0.27c1.538,0.772,2.158,2.645,1.385,4.184
		C207.895,429.878,206.022,430.498,204.484,429.726"/>
	
		<rect x="159.381" y="391.769" transform="matrix(0.8935 0.4491 -0.4491 0.8935 198.4929 -28.9334)" fill="#CECDE8" width="1.73" height="24.493"/>
	<path fill="#FFFFFF" d="M97.512,262.311L72.509,301.94c-0.982,1.557-3.04,2.022-4.596,1.041l-56.87-35.882
		c-1.556-0.982-2.022-3.039-1.04-4.596l25.004-39.629c0.982-1.556,3.039-2.022,4.596-1.04l56.869,35.881
		C98.028,258.697,98.494,260.754,97.512,262.311"/>
	<path fill="#C71781" d="M13.489,263.366c0.502,0.317,0.653,0.981,0.335,1.484c-0.316,0.503-0.981,0.654-1.484,0.337
		c-0.503-0.318-0.653-0.982-0.336-1.485C12.321,263.199,12.986,263.049,13.489,263.366"/>
	<path fill="#C71781" d="M38.462,223.785c0.502,0.317,0.653,0.981,0.336,1.484c-0.317,0.504-0.982,0.653-1.484,0.336
		c-0.504-0.317-0.654-0.981-0.337-1.485C37.295,223.618,37.959,223.468,38.462,223.785"/>
	<path fill="#C71781" d="M69.906,298.962c0.502,0.316,0.653,0.981,0.335,1.484c-0.317,0.503-0.981,0.654-1.483,0.337
		c-0.504-0.318-0.654-0.982-0.336-1.485C68.739,298.795,69.403,298.645,69.906,298.962"/>
	<path fill="#C71781" d="M94.879,259.381c0.502,0.316,0.653,0.981,0.336,1.483c-0.318,0.504-0.982,0.654-1.484,0.337
		c-0.503-0.317-0.654-0.981-0.336-1.484C93.712,259.214,94.376,259.064,94.879,259.381"/>
	
		<rect x="83.205" y="273.93" transform="matrix(0.5337 -0.8457 0.8457 0.5337 -192.5518 202.1556)" fill="#CACAED" width="7.64" height="3.482"/>
	<path fill="#8683E4" d="M86.842,272.698l2.059,1.299l0.346-0.549l-2.059-1.298L86.842,272.698z M88.17,275.156l0.346-0.548
		l-2.059-1.299l-0.346,0.549L88.17,275.156z M87.438,276.316l0.347-0.549l-2.059-1.3l-0.347,0.55L87.438,276.316z M86.706,277.476
		l0.347-0.55l-2.059-1.299l-0.347,0.55L86.706,277.476z M85.975,278.635l0.347-0.55l-2.059-1.299l-0.347,0.55L85.975,278.635z"/>
	<path fill="#C71781" d="M59.796,238.434c10.975,6.924,14.259,21.436,7.335,32.41c-6.925,10.976-21.436,14.258-32.411,7.334
		c-10.975-6.925-14.259-21.434-7.334-32.411C34.31,234.793,48.821,231.509,59.796,238.434"/>
	<path fill="#E1E1EF" d="M54.538,254.66c2.014,4.021,0.387,8.913-3.634,10.927c-4.021,2.013-8.912,0.386-10.927-3.634
		c-2.013-4.022-0.386-8.912,3.635-10.927C47.633,249.013,52.524,250.64,54.538,254.66"/>
	<path fill="#8683E4" d="M53.856,255.002c1.826,3.644,0.351,8.078-3.294,9.903c-3.644,1.826-8.078,0.351-9.903-3.294
		c-1.825-3.643-0.35-8.078,3.293-9.903C47.598,249.883,52.031,251.357,53.856,255.002"/>
	<path fill="#E1E1EF" d="M50.74,256.562c0.963,1.923,0.185,4.264-1.739,5.227c-1.923,0.963-4.263,0.185-5.227-1.739
		c-0.963-1.923-0.184-4.263,1.738-5.227C47.436,253.86,49.777,254.638,50.74,256.562"/>
	<path fill="#E1E1EF" d="M42.78,260.55c0.187,0.373,0.037,0.828-0.338,1.016c-0.374,0.187-0.829,0.036-1.016-0.338
		c-0.187-0.374-0.036-0.829,0.338-1.017C42.138,260.024,42.593,260.175,42.78,260.55"/>
	<path fill="#E1E1EF" d="M53.089,255.387c0.187,0.373,0.037,0.828-0.337,1.017c-0.374,0.186-0.83,0.035-1.017-0.339
		c-0.187-0.374-0.036-0.829,0.338-1.016C52.446,254.862,52.902,255.013,53.089,255.387"/>
	<path fill="#E1E1EF" d="M49.5,262.784c0.374-0.187,0.829-0.036,1.016,0.338c0.187,0.374,0.036,0.828-0.338,1.016
		c-0.374,0.187-0.829,0.036-1.016-0.337C48.975,263.426,49.125,262.971,49.5,262.784"/>
	<path fill="#E1E1EF" d="M44.337,252.475c0.374-0.187,0.829-0.036,1.016,0.338c0.187,0.374,0.036,0.829-0.338,1.016
		s-0.829,0.037-1.016-0.337C43.812,253.117,43.963,252.662,44.337,252.475"/>
	<polygon fill="#E1E0FE" points="344.088,64.922 344.088,64.922 360.162,56.058 	"/>
	<path fill="#E1E0FE" d="M308.505,36.17l-2.345,1.293c-19.061,10.511-24.625,37.095-14.114,56.156l19.439-10.72l-16.073,8.864
		c-9.487-17.205-4.6-41.446,12.605-50.933l2.344-1.293c17.206-9.488,40.314-0.684,49.801,16.521l3.367-1.857
		C353.018,35.14,327.567,25.659,308.505,36.17"/>
	
		<rect x="295.634" y="87.891" transform="matrix(0.8757 -0.4829 0.4829 0.8757 -12.1691 157.0208)" fill="#DBDBE6" width="6.419" height="28.502"/>
	<path fill="#361E54" d="M295.823,109.966l2.813-1.551l-5.208-9.445l-2.813,1.552c-1.908,1.052-2.602,3.452-1.55,5.361l1.398,2.533
		C291.514,110.324,293.915,111.019,295.823,109.966"/>
	<path fill="#C71781" d="M324.679,107.25c1.026,1.862,0.349,4.204-1.515,5.231l-8.093,4.464c-1.864,1.028-4.205,0.351-5.233-1.511
		l-16.367-29.682c-1.027-1.862-0.351-4.206,1.513-5.233l8.094-4.464c1.863-1.027,4.206-0.349,5.233,1.513L324.679,107.25z"/>
	
		<rect x="363.539" y="50.446" transform="matrix(-0.8757 0.4829 -0.4829 -0.8757 719.1395 -55.7635)" fill="#DBDBE6" width="6.419" height="28.501"/>
	<path fill="#361E54" d="M374.875,66.374l-2.712,1.495l-5.208-9.444l2.712-1.495c1.965-1.084,4.436-0.369,5.519,1.595l1.285,2.33
		C377.554,62.82,376.84,65.291,374.875,66.374"/>
	<path fill="#C71781" d="M357.281,89.272c1.026,1.862,3.369,2.539,5.231,1.512l8.096-4.465c1.862-1.026,2.541-3.368,1.514-5.231
		l-16.367-29.682c-1.028-1.862-3.371-2.54-5.234-1.513l-8.095,4.464c-1.863,1.027-2.54,3.371-1.513,5.233L357.281,89.272z"/>
	<path fill="#9696CC" d="M334.165,36.928c-0.57,0.29-1.222,0.441-1.907,0.412c-7.116-0.31-14.353,1.29-20.927,4.63
		c-6.573,3.339-12.134,8.239-16.081,14.168c-1.177,1.769-3.567,2.251-5.337,1.072c-1.77-1.178-2.251-3.567-1.073-5.337
		c4.679-7.032,11.251-12.829,19.004-16.768c7.754-3.939,16.311-5.826,24.749-5.457c2.125,0.092,3.771,1.889,3.678,4.013
		C336.209,35.1,335.363,36.319,334.165,36.928"/>
	<path fill="#E1E1EF" d="M357.047,228.568c-1.225,3.871-5.354,6.018-9.225,4.793l-34.033-10.76c-3.866-1.222-6.01-5.353-4.785-9.223
		l28.021-88.621c1.222-3.869,5.349-6.01,9.215-4.788l34.034,10.762c3.87,1.223,6.016,5.347,4.794,9.217L357.047,228.568z"/>
	
		<rect x="308.711" y="153.017" transform="matrix(0.3015 -0.9535 0.9535 0.3015 75.499 453.7774)" fill="#FFFFFF" width="77.468" height="44.689"/>
	<path fill="#FFD23C" d="M355.879,203.322c-0.207,0.654-0.905,1.016-1.559,0.809l-30.163-9.538c-0.655-0.207-1.016-0.903-0.81-1.557
		c0.207-0.653,0.903-1.015,1.558-0.809l30.164,9.538C355.722,201.971,356.085,202.669,355.879,203.322"/>
	<path fill="#FFD23C" d="M354.477,207.758c-0.207,0.653-0.905,1.015-1.559,0.809l-30.164-9.538
		c-0.654-0.207-1.015-0.904-0.809-1.557c0.207-0.654,0.903-1.016,1.557-0.809l30.164,9.537
		C354.32,206.407,354.683,207.104,354.477,207.758"/>
	<path fill="#FFD23C" d="M357.354,198.66c-0.207,0.653-0.906,1.015-1.559,0.808l-30.164-9.537c-0.654-0.207-1.016-0.904-0.809-1.557
		c0.207-0.654,0.903-1.016,1.557-0.809l30.164,9.537C357.196,197.309,357.56,198.006,357.354,198.66"/>
	<path fill="#72D0FF" d="M365.557,172.714c-0.207,0.653-0.905,1.015-1.559,0.809l-30.163-9.538c-0.655-0.207-1.016-0.903-0.81-1.557
		c0.207-0.653,0.903-1.016,1.558-0.809l30.164,9.538C365.4,171.363,365.764,172.06,365.557,172.714"/>
	<path fill="#72D0FF" d="M364.154,177.15c-0.207,0.654-0.906,1.016-1.559,0.809l-30.164-9.537c-0.654-0.207-1.015-0.904-0.809-1.558
		c0.207-0.653,0.903-1.015,1.557-0.808l30.164,9.537C363.997,175.799,364.36,176.497,364.154,177.15"/>
	<path fill="#72D0FF" d="M367.03,168.052c-0.206,0.654-0.905,1.015-1.558,0.809l-30.164-9.538c-0.654-0.207-1.016-0.903-0.809-1.557
		c0.207-0.653,0.903-1.016,1.557-0.809l30.164,9.538C366.873,166.701,367.237,167.399,367.03,168.052"/>
	<path fill="#C71781" d="M354.906,192.879l-24.732-7.82c-1.513-0.478-2.352-2.093-1.873-3.606l2.27-7.18
		c0.479-1.514,2.093-2.352,3.606-1.874l24.732,7.82c1.514,0.478,2.352,2.093,1.874,3.606l-2.271,7.181
		C358.034,192.519,356.42,193.358,354.906,192.879"/>
	<path fill="#C71781" d="M349.127,157.903l-10.103-3.194c-1.138-0.36-1.769-1.575-1.41-2.713l3.195-10.103
		c0.36-1.139,1.575-1.77,2.714-1.41l10.102,3.194c1.139,0.36,1.77,1.575,1.409,2.714l-3.194,10.102
		C351.481,157.632,350.266,158.263,349.127,157.903"/>
	<path fill="#C71781" d="M365.113,162.958l-10.103-3.194c-1.137-0.36-1.769-1.575-1.409-2.714l3.195-10.103
		c0.359-1.138,1.575-1.769,2.713-1.409l10.102,3.194c1.139,0.36,1.77,1.575,1.41,2.713l-3.194,10.103
		C367.467,162.687,366.252,163.318,365.113,162.958"/>
	<path fill="#CACAED" d="M337.556,222.134c-0.777,2.46-3.402,3.823-5.862,3.045c-2.459-0.777-3.824-3.402-3.045-5.862
		c0.777-2.459,3.402-3.823,5.862-3.045S338.334,219.674,337.556,222.134"/>
	<path fill="#C71781" d="M426.41,83.448L426.41,83.448c-1.813-0.756-2.68-2.859-1.923-4.673l9.189-22.044
		c0.756-1.815,2.859-2.68,4.673-1.924c1.815,0.756,2.68,2.859,1.923,4.674l-9.188,22.044
		C430.327,83.339,428.224,84.204,426.41,83.448"/>
	<path fill="#C71781" d="M418.579,63.375L418.579,63.375c0.756-1.814,2.859-2.68,4.674-1.923l22.044,9.189
		c1.813,0.756,2.679,2.859,1.924,4.673c-0.757,1.814-2.86,2.68-4.674,1.924l-22.044-9.19
		C418.688,67.292,417.823,65.189,418.579,63.375"/>
	<path fill="#C71781" d="M22.689,460.701L22.689,460.701c-1.366-0.569-2.017-2.152-1.448-3.518l6.916-16.589
		c0.569-1.367,2.152-2.018,3.517-1.449c1.366,0.57,2.017,2.153,1.448,3.518l-6.916,16.591
		C25.637,460.619,24.054,461.27,22.689,460.701"/>
	<path fill="#C71781" d="M16.795,445.594L16.795,445.594c0.569-1.365,2.152-2.017,3.517-1.447l16.591,6.915
		c1.365,0.569,2.017,2.152,1.448,3.517c-0.57,1.366-2.153,2.017-3.518,1.448l-16.59-6.915
		C16.877,448.542,16.226,446.959,16.795,445.594"/>
	<path fill="#C71781" d="M431.972,408.369L431.972,408.369c-1.012,0.62-2.347,0.3-2.967-0.712l-7.537-12.293
		c-0.62-1.012-0.3-2.347,0.712-2.968c1.012-0.62,2.347-0.299,2.967,0.712l7.537,12.294
		C433.304,406.414,432.984,407.749,431.972,408.369"/>
	<path fill="#C71781" d="M419.379,405.101L419.379,405.101c-0.62-1.012-0.3-2.347,0.712-2.967l12.294-7.537
		c1.012-0.62,2.347-0.301,2.967,0.711c0.62,1.012,0.299,2.348-0.712,2.968l-12.293,7.537
		C421.335,406.433,420,406.113,419.379,405.101"/>
	<path fill="#FFD23C" d="M242.02,6.356c0,0,10.697,1.473,13.549,7.595c2.852,6.123,8.082,2.894,12.836,2.607
		c4.754-0.287,9.032,7.378,9.032,12.34l-5.942,2.503c0,0-0.951-8.689-7.369-7.869c-6.418,0.821-12.835,2.37-14.737-6.011
		c-1.901-8.381-11.647-5.076-11.647-5.076L242.02,6.356z"/>
	<polygon fill="#FFD23C" points="227.425,4.286 241.453,20.013 248.059,0 	"/>
	<path fill="#FFD23C" d="M330.912,410.368c0,0-6.446,8.661-13.187,8.208c-6.739-0.453-6.43,5.686-8.471,9.988
		c-2.041,4.304-10.819,4.357-15.166,1.964l0.672-6.413c0,0,8.071,3.357,10.446-2.661c2.376-6.019,4.112-12.388,12.372-10.014
		c8.26,2.375,10.063-7.756,10.063-7.756L330.912,410.368z"/>
	<polygon fill="#FFD23C" points="339.763,398.579 319.222,403.287 333.57,418.723 	"/>
	<path fill="#FFD23C" d="M5.684,222.79c0,0-2.538-6.797,0.176-10.436c2.713-3.639-0.863-5.704-2.549-8.425
		c-1.684-2.721,1.487-7.695,4.423-9.276l3.374,2.718c0,0-4.837,3.332-2.307,6.867c2.531,3.535,5.493,6.839,1.14,10.635
		c-4.352,3.795,0.709,8.508,0.709,8.508L5.684,222.79z"/>
	<polygon fill="#FFD23C" points="9.111,232.084 13.944,218.773 0,221.242 	"/>
	<path fill="#31C9AC" d="M424.896,315.285c0,2.979-2.415,5.395-5.395,5.395c-2.979,0-5.394-2.416-5.394-5.395
		s2.415-5.395,5.394-5.395C422.481,309.89,424.896,312.306,424.896,315.285"/>
	<path fill="#31C9AC" d="M62.563,81.941c0,2.979-2.415,5.395-5.394,5.395c-2.98,0-5.395-2.416-5.395-5.395
		c0-2.979,2.415-5.395,5.395-5.395C60.148,76.546,62.563,78.962,62.563,81.941"/>
	<path fill="#31C9AC" d="M391.572,116.436c0,1.49-1.208,2.697-2.697,2.697c-1.49,0-2.698-1.207-2.698-2.697
		c0-1.49,1.208-2.697,2.698-2.697C390.364,113.739,391.572,114.946,391.572,116.436"/>
	<path fill="#31C9AC" d="M394.334,38.519c0,2.071-1.679,3.75-3.75,3.75c-2.071,0-3.751-1.679-3.751-3.75
		c0-2.071,1.68-3.75,3.751-3.75C392.655,34.769,394.334,36.448,394.334,38.519"/>
	<path fill="#31C9AC" d="M255.078,428.948c0,3.161-2.563,5.725-5.725,5.725s-5.724-2.564-5.724-5.725
		c0-3.162,2.562-5.726,5.724-5.726S255.078,425.786,255.078,428.948"/>
	<g>
		<path fill="#FFFFFF" d="M132.223,213.284l7.966-3.432l11.917,23.253l12.538-5.401l3.173,6.447l-20.091,8.655L132.223,213.284z"/>
		<path fill="#FFFFFF" d="M180.417,194.451c3.132,0.324,5.951,1.396,8.452,3.208c2.486,1.802,4.378,4.188,5.68,7.152
			c1.304,2.97,1.774,5.933,1.419,8.893c-0.353,2.942-1.441,5.6-3.259,7.981c-1.813,2.373-4.208,4.199-7.192,5.485
			c-2.984,1.285-5.99,1.795-9.028,1.527c-3.048-0.267-5.83-1.259-8.348-2.981c-2.533-1.732-4.516-4.053-5.944-6.969
			c-1.425-2.911-2.01-5.86-1.747-8.846c0.266-3.004,1.316-5.743,3.154-8.208c1.845-2.473,4.323-4.382,7.43-5.721
			C174.144,194.634,177.273,194.128,180.417,194.451z M170.71,205.798c-0.907,1.338-1.406,2.857-1.498,4.553
			c-0.092,1.691,0.253,3.351,1.031,4.982c0.788,1.653,1.877,2.988,3.267,4.007c1.384,1.017,2.877,1.643,4.482,1.88
			c1.6,0.238,3.13,0.04,4.593-0.59c1.462-0.63,2.628-1.594,3.498-2.896c0.871-1.304,1.355-2.782,1.449-4.435
			c0.094-1.658-0.233-3.322-0.986-4.989c-0.743-1.646-1.785-3.006-3.124-4.08c-1.345-1.077-2.824-1.744-4.435-1.997
			c-1.614-0.253-3.171-0.058-4.667,0.587C172.822,203.464,171.619,204.458,170.71,205.798z"/>
		<path fill="#FFFFFF" d="M217.618,194.564l6.745-2.906l4.783,12.133c-1.106,1.844-2.654,3.616-4.64,5.318
			c-1.984,1.699-3.992,2.986-6.027,3.863c-2.955,1.273-5.905,1.758-8.858,1.454c-2.962-0.304-5.64-1.332-8.035-3.09
			c-2.41-1.768-4.266-4.134-5.565-7.106c-1.296-2.965-1.753-5.979-1.362-9.037c0.393-3.077,1.567-5.878,3.525-8.394
			c1.965-2.525,4.532-4.472,7.697-5.836c2.265-0.976,4.706-1.517,7.319-1.623c2.607-0.106,4.979,0.234,7.114,1.017l-2.198,7.699
			c-1.52-0.604-3.118-0.914-4.795-0.929c-1.679-0.015-3.21,0.275-4.591,0.87c-1.613,0.695-2.898,1.723-3.856,3.085
			c-0.956,1.359-1.513,2.894-1.672,4.602c-0.158,1.702,0.124,3.399,0.842,5.09c0.728,1.713,1.75,3.094,3.065,4.145
			c1.312,1.048,2.777,1.677,4.397,1.891c1.617,0.213,3.211-0.02,4.787-0.698c1.49-0.642,2.994-1.861,4.513-3.662L217.618,194.564z"
			/>
		<path fill="#FFFFFF" d="M247.094,165.728c3.014,0.375,5.671,1.517,7.968,3.417c2.282,1.89,3.947,4.374,4.999,7.445
			c1.054,3.078,1.3,6.137,0.747,9.183c-0.551,3.028-1.794,5.752-3.726,8.182c-1.925,2.422-4.377,4.272-7.36,5.557
			c-2.984,1.286-5.935,1.771-8.861,1.455c-2.936-0.315-5.562-1.374-7.881-3.182c-2.333-1.818-4.091-4.235-5.269-7.26
			c-1.175-3.018-1.534-6.065-1.066-9.139c0.47-3.092,1.682-5.9,3.639-8.417c1.964-2.524,4.502-4.459,7.609-5.798
			C240.999,165.833,244.069,165.352,247.094,165.728z M236.88,177.293c-0.974,1.367-1.565,2.925-1.775,4.672
			c-0.209,1.741,0.007,3.457,0.646,5.148c0.647,1.713,1.609,3.104,2.883,4.172c1.27,1.066,2.674,1.731,4.212,1.997
			c1.535,0.266,3.032,0.083,4.495-0.547c1.462-0.63,2.661-1.608,3.596-2.938c0.938-1.333,1.51-2.849,1.72-4.552
			c0.209-1.708,0.01-3.426-0.602-5.155c-0.604-1.706-1.517-3.121-2.74-4.246c-1.228-1.128-2.614-1.835-4.158-2.117
			c-1.547-0.283-3.07-0.102-4.566,0.543C239.092,174.916,237.855,175.924,236.88,177.293z"/>
	</g>
</g>
</svg>
